<svg xmlns="http://www.w3.org/2000/svg" xmlns:xlink="http://www.w3.org/1999/xlink" width="500" zoomAndPan="magnify" viewBox="0 0 375 374.999991" height="500" preserveAspectRatio="xMidYMid meet" version="1.0"><defs><g/></defs><g fill="#ffffff" fill-opacity="1"><g transform="translate(101.148147, 279.887044)"><g><path d="M 121.59375 -3.125 L 36.25 -209.734375 C 35 -212.648438 32.132812 -214.523438 27.65625 -215.359375 C 23.175781 -216.191406 19.789062 -216.609375 17.5 -216.609375 L 15.625 -216.609375 L 15.625 -221.296875 L 66.578125 -221.296875 L 66.578125 -216.609375 L 64.390625 -216.609375 C 62.722656 -216.609375 60.429688 -216.398438 57.515625 -215.984375 C 54.597656 -215.566406 52.203125 -214.890625 50.328125 -213.953125 C 48.453125 -213.015625 47.828125 -211.503906 48.453125 -209.421875 L 127.84375 -17.8125 L 206.921875 -209.421875 C 207.753906 -211.503906 206.972656 -213.066406 204.578125 -214.109375 C 202.179688 -215.148438 199.257812 -215.828125 195.8125 -216.140625 C 192.375 -216.453125 189.507812 -216.609375 187.21875 -216.609375 L 183.78125 -216.609375 L 183.78125 -221.296875 L 235.046875 -221.296875 L 235.046875 -216.609375 L 234.109375 -216.609375 C 232.859375 -216.609375 230.617188 -216.453125 227.390625 -216.140625 C 224.160156 -215.828125 221.035156 -215.203125 218.015625 -214.265625 C 214.992188 -213.328125 212.960938 -211.710938 211.921875 -209.421875 L 130.34375 -11.875 L 125.34375 0 L 122.84375 0 Z M 121.59375 -3.125 "/></g></g></g><g fill="#ffffff" fill-opacity="1"><g transform="translate(43.837024, 290.601169)"><g><path d="M 98.21875 -172.453125 C 89.238281 -172.285156 80.707031 -169.914062 72.625 -165.34375 C 64.539062 -160.769531 57.394531 -154.398438 51.1875 -146.234375 C 44.820312 -138.066406 39.960938 -128.757812 36.609375 -118.3125 C 33.265625 -107.863281 31.59375 -96.84375 31.59375 -85.25 C 31.59375 -73.8125 33.265625 -62.828125 36.609375 -52.296875 C 39.960938 -41.765625 44.820312 -32.414062 51.1875 -24.25 C 57.394531 -16.082031 64.539062 -9.753906 72.625 -5.265625 C 80.707031 -0.773438 89.160156 1.628906 97.984375 1.953125 L 98.46875 1.953125 C 99.125 1.953125 99.613281 1.953125 99.9375 1.953125 C 100.101562 1.953125 100.347656 1.953125 100.671875 1.953125 C 101.003906 1.953125 101.25 1.953125 101.40625 1.953125 C 114.3125 1.460938 126.070312 -3.144531 136.6875 -11.875 C 147.300781 -20.613281 155.382812 -32.25 160.9375 -46.78125 C 161.09375 -47.113281 161.335938 -47.28125 161.671875 -47.28125 C 161.992188 -47.28125 162.15625 -47.113281 162.15625 -46.78125 L 168.53125 -29.890625 C 168.6875 -29.722656 168.6875 -29.554688 168.53125 -29.390625 C 160.363281 -19.265625 150.398438 -11.34375 138.640625 -5.625 C 126.878906 0.0820312 114.550781 3.019531 101.65625 3.1875 L 101.171875 3.1875 C 100.835938 3.1875 100.425781 3.1875 99.9375 3.1875 C 99.445312 3.1875 98.875 3.1875 98.21875 3.1875 C 86.625 3.019531 75.476562 0.648438 64.78125 -3.921875 C 54.09375 -8.492188 44.75 -14.941406 36.75 -23.265625 C 28.582031 -31.597656 22.289062 -41.113281 17.875 -51.8125 C 13.46875 -62.507812 11.265625 -73.65625 11.265625 -85.25 C 11.265625 -96.84375 13.46875 -108.023438 17.875 -118.796875 C 22.289062 -129.578125 28.582031 -139.132812 36.75 -147.46875 C 44.75 -155.625 54.054688 -162.03125 64.671875 -166.6875 C 75.285156 -171.34375 86.390625 -173.753906 97.984375 -173.921875 L 98.71875 -173.921875 C 99.039062 -173.921875 99.445312 -173.921875 99.9375 -173.921875 C 100.269531 -173.921875 100.84375 -173.921875 101.65625 -173.921875 C 114.550781 -173.585938 126.835938 -170.601562 138.515625 -164.96875 C 150.191406 -159.34375 160.195312 -151.46875 168.53125 -141.34375 C 168.6875 -141.175781 168.6875 -140.929688 168.53125 -140.609375 L 162.15625 -123.703125 C 162.15625 -123.535156 161.992188 -123.453125 161.671875 -123.453125 C 161.335938 -123.453125 161.09375 -123.535156 160.9375 -123.703125 C 155.382812 -138.398438 147.300781 -150.113281 136.6875 -158.84375 C 126.070312 -167.582031 114.394531 -172.117188 101.65625 -172.453125 L 101.171875 -172.6875 C 100.835938 -172.6875 100.425781 -172.6875 99.9375 -172.6875 C 99.445312 -172.6875 98.875 -172.609375 98.21875 -172.453125 Z M 98.21875 -172.453125 "/></g></g></g><g fill="#ffffff" fill-opacity="1"><g transform="translate(46.572612, 334.131825)"><g><path d="M 27.859375 -25.59375 C 27.859375 -25.488281 27.804688 -25.4375 27.703125 -25.4375 L 27.015625 -25.4375 C 25.441406 -25.132812 24.285156 -23.847656 23.546875 -21.578125 C 23.347656 -20.984375 23.144531 -20.40625 22.9375 -19.84375 L 15.640625 -0.15625 C 15.523438 0.15625 15.382812 0.34375 15.21875 0.40625 C 15.0625 0.46875 14.84375 0.5 14.5625 0.5 L 13.6875 0.5 C 13.382812 0.5 13.191406 0.363281 13.109375 0.09375 L 3.328125 -23.625 C 2.929688 -24.601562 1.953125 -25.203125 0.390625 -25.421875 C 0.304688 -25.429688 0.234375 -25.4375 0.171875 -25.4375 C 0.117188 -25.4375 0.09375 -25.488281 0.09375 -25.59375 L 0.09375 -26.03125 C 0.09375 -26.132812 0.140625 -26.1875 0.234375 -26.1875 L 11.203125 -26.1875 C 11.296875 -26.1875 11.34375 -26.132812 11.34375 -26.03125 L 11.34375 -25.59375 C 11.34375 -25.488281 11.296875 -25.4375 11.203125 -25.4375 L 10.921875 -25.4375 C 10.609375 -25.382812 10.25 -25.335938 9.84375 -25.296875 C 8.257812 -25.097656 7.46875 -24.460938 7.46875 -23.390625 C 7.46875 -23.054688 7.550781 -22.703125 7.71875 -22.328125 L 14.765625 -5.203125 C 14.890625 -4.953125 15.019531 -4.957031 15.15625 -5.21875 L 21.609375 -22.71875 C 21.703125 -22.957031 21.75 -23.25 21.75 -23.59375 C 21.75 -23.9375 21.601562 -24.265625 21.3125 -24.578125 C 21.03125 -24.890625 20.742188 -25.070312 20.453125 -25.125 C 20.160156 -25.175781 19.929688 -25.210938 19.765625 -25.234375 C 19.597656 -25.265625 19.347656 -25.304688 19.015625 -25.359375 C 18.679688 -25.410156 18.457031 -25.4375 18.34375 -25.4375 C 18.238281 -25.4375 18.1875 -25.488281 18.1875 -25.59375 L 18.1875 -26.03125 C 18.1875 -26.132812 18.234375 -26.1875 18.328125 -26.1875 L 27.703125 -26.1875 C 27.804688 -26.1875 27.859375 -26.132812 27.859375 -26.03125 Z M 27.859375 -25.59375 "/></g></g></g><g fill="#ffffff" fill-opacity="1"><g transform="translate(77.326354, 334.131825)"><g><path d="M 4.671875 -23.21875 C 4.671875 -24.695312 3.816406 -25.4375 2.109375 -25.4375 C 1.835938 -25.4375 1.703125 -25.488281 1.703125 -25.59375 L 1.703125 -26.03125 C 1.703125 -26.132812 1.753906 -26.1875 1.859375 -26.1875 L 11.15625 -26.1875 C 11.257812 -26.1875 11.3125 -26.132812 11.3125 -26.03125 L 11.3125 -25.59375 C 11.3125 -25.488281 11.035156 -25.4375 10.484375 -25.4375 C 9.941406 -25.4375 9.441406 -25.265625 8.984375 -24.921875 C 8.523438 -24.578125 8.296875 -23.863281 8.296875 -22.78125 L 8.296875 -2.96875 C 8.296875 -1.488281 9.15625 -0.75 10.875 -0.75 C 11.132812 -0.75 11.265625 -0.695312 11.265625 -0.59375 L 11.265625 -0.15625 C 11.265625 -0.0507812 11.21875 0 11.125 0 L 1.8125 0 C 1.71875 0 1.671875 -0.0507812 1.671875 -0.15625 L 1.671875 -0.59375 C 1.671875 -0.695312 1.941406 -0.75 2.484375 -0.75 C 3.035156 -0.75 3.535156 -0.921875 3.984375 -1.265625 C 4.441406 -1.609375 4.671875 -2.316406 4.671875 -3.390625 Z M 4.671875 -23.21875 "/></g></g></g><g fill="#ffffff" fill-opacity="1"><g transform="translate(93.117357, 334.131825)"><g><path d="M 15.671875 -25.953125 C 15.796875 -25.953125 15.859375 -25.816406 15.859375 -25.546875 L 16.34375 -21.59375 C 16.394531 -21.34375 16.421875 -21.179688 16.421875 -21.109375 C 16.421875 -21.046875 16.320312 -21.015625 16.125 -21.015625 C 15.9375 -21.015625 15.816406 -21.039062 15.765625 -21.09375 C 15.710938 -21.144531 15.660156 -21.226562 15.609375 -21.34375 C 15.566406 -21.457031 15.507812 -21.585938 15.4375 -21.734375 C 15.375 -21.890625 15.304688 -22.039062 15.234375 -22.1875 C 14.972656 -22.757812 14.5625 -23.320312 14 -23.875 C 12.632812 -25.1875 11.097656 -25.84375 9.390625 -25.84375 C 8.367188 -25.84375 7.398438 -25.507812 6.484375 -24.84375 C 5.566406 -24.175781 5.109375 -23.382812 5.109375 -22.46875 C 5.109375 -21.5625 5.273438 -20.773438 5.609375 -20.109375 C 5.953125 -19.441406 6.398438 -18.820312 6.953125 -18.25 C 7.515625 -17.6875 8.15625 -17.144531 8.875 -16.625 C 9.59375 -16.101562 10.320312 -15.578125 11.0625 -15.046875 C 13.03125 -13.671875 14.429688 -12.492188 15.265625 -11.515625 C 16.566406 -10.003906 17.269531 -8.304688 17.375 -6.421875 C 17.375 -4.316406 16.566406 -2.632812 14.953125 -1.375 C 13.335938 -0.125 11.460938 0.5 9.328125 0.5 C 7.953125 0.5 6.859375 0.359375 6.046875 0.078125 C 5.234375 -0.191406 4.671875 -0.390625 4.359375 -0.515625 C 4.054688 -0.640625 3.832031 -0.703125 3.6875 -0.703125 C 3.539062 -0.703125 3.453125 -0.695312 3.421875 -0.6875 L 2.5 -0.5 C 2.34375 -0.5 2.242188 -0.628906 2.203125 -0.890625 C 1.847656 -3.960938 1.671875 -5.59375 1.671875 -5.78125 C 1.671875 -5.976562 1.6875 -6.109375 1.71875 -6.171875 C 1.75 -6.242188 1.832031 -6.28125 1.96875 -6.28125 C 2.3125 -6.28125 2.628906 -5.785156 2.921875 -4.796875 C 4.210938 -2.003906 6.367188 -0.609375 9.390625 -0.609375 C 10.773438 -0.609375 11.957031 -1.03125 12.9375 -1.875 C 13.925781 -2.71875 14.421875 -3.8125 14.421875 -5.15625 C 14.421875 -7.3125 13.132812 -9.316406 10.5625 -11.171875 C 9.832031 -11.691406 8.78125 -12.414062 7.40625 -13.34375 C 6.03125 -14.28125 4.9375 -15.210938 4.125 -16.140625 C 2.84375 -17.578125 2.203125 -19.175781 2.203125 -20.9375 C 2.203125 -22.695312 2.90625 -24.140625 4.3125 -25.265625 C 5.71875 -26.398438 7.332031 -26.96875 9.15625 -26.96875 C 10.09375 -26.96875 11.128906 -26.804688 12.265625 -26.484375 C 13.398438 -26.160156 14.191406 -25.941406 14.640625 -25.828125 Z M 15.671875 -25.953125 "/></g></g></g><g fill="#ffffff" fill-opacity="1"><g transform="translate(114.978855, 334.131825)"><g><path d="M 4.671875 -23.21875 C 4.671875 -24.695312 3.816406 -25.4375 2.109375 -25.4375 C 1.835938 -25.4375 1.703125 -25.488281 1.703125 -25.59375 L 1.703125 -26.03125 C 1.703125 -26.132812 1.753906 -26.1875 1.859375 -26.1875 L 11.15625 -26.1875 C 11.257812 -26.1875 11.3125 -26.132812 11.3125 -26.03125 L 11.3125 -25.59375 C 11.3125 -25.488281 11.035156 -25.4375 10.484375 -25.4375 C 9.941406 -25.4375 9.441406 -25.265625 8.984375 -24.921875 C 8.523438 -24.578125 8.296875 -23.863281 8.296875 -22.78125 L 8.296875 -2.96875 C 8.296875 -1.488281 9.15625 -0.75 10.875 -0.75 C 11.132812 -0.75 11.265625 -0.695312 11.265625 -0.59375 L 11.265625 -0.15625 C 11.265625 -0.0507812 11.21875 0 11.125 0 L 1.8125 0 C 1.71875 0 1.671875 -0.0507812 1.671875 -0.15625 L 1.671875 -0.59375 C 1.671875 -0.695312 1.941406 -0.75 2.484375 -0.75 C 3.035156 -0.75 3.535156 -0.921875 3.984375 -1.265625 C 4.441406 -1.609375 4.671875 -2.316406 4.671875 -3.390625 Z M 4.671875 -23.21875 "/></g></g></g><g fill="#ffffff" fill-opacity="1"><g transform="translate(130.769863, 334.131825)"><g><path d="M 23.8125 -1.59375 C 22.726562 -0.9375 21.546875 -0.421875 20.265625 -0.046875 C 18.992188 0.316406 17.863281 0.5 16.875 0.5 C 14.84375 0.5 12.90625 0.171875 11.0625 -0.484375 C 8.539062 -1.398438 6.515625 -2.753906 4.984375 -4.546875 C 3.023438 -6.835938 2.046875 -9.742188 2.046875 -13.265625 C 2.046875 -15.796875 2.691406 -18.101562 3.984375 -20.1875 C 5.285156 -22.28125 7.082031 -23.929688 9.375 -25.140625 C 11.675781 -26.359375 14.148438 -26.96875 16.796875 -26.96875 C 19.441406 -26.96875 21.804688 -26.378906 23.890625 -25.203125 C 25.984375 -24.023438 27.660156 -22.40625 28.921875 -20.34375 C 30.191406 -18.289062 30.828125 -16.066406 30.828125 -13.671875 C 30.828125 -11.273438 30.203125 -9 28.953125 -6.84375 C 27.703125 -4.6875 25.988281 -2.9375 23.8125 -1.59375 Z M 5.9375 -13.84375 C 5.9375 -11.789062 6.390625 -9.753906 7.296875 -7.734375 C 8.210938 -5.710938 9.519531 -4.0625 11.21875 -2.78125 C 12.914062 -1.507812 14.878906 -0.875 17.109375 -0.875 C 20.273438 -0.875 22.742188 -2.085938 24.515625 -4.515625 C 26.109375 -6.703125 26.90625 -9.5 26.90625 -12.90625 C 26.90625 -16.3125 25.925781 -19.242188 23.96875 -21.703125 C 23.019531 -22.910156 21.851562 -23.875 20.46875 -24.59375 C 19.09375 -25.320312 17.703125 -25.6875 16.296875 -25.6875 C 14.890625 -25.6875 13.738281 -25.53125 12.84375 -25.21875 C 11.945312 -24.90625 11.128906 -24.476562 10.390625 -23.9375 C 9.660156 -23.40625 9.015625 -22.765625 8.453125 -22.015625 C 7.898438 -21.273438 7.441406 -20.472656 7.078125 -19.609375 C 6.316406 -17.828125 5.9375 -15.90625 5.9375 -13.84375 Z M 5.9375 -13.84375 "/></g></g></g><g fill="#ffffff" fill-opacity="1"><g transform="translate(166.44312, 334.131825)"><g><path d="M 1.265625 0 C 1.160156 0 1.109375 -0.0507812 1.109375 -0.15625 L 1.109375 -0.59375 C 1.109375 -0.695312 1.171875 -0.75 1.296875 -0.75 L 1.734375 -0.75 C 2.410156 -0.75 2.875 -0.804688 3.125 -0.921875 C 4.039062 -1.367188 4.5 -2.597656 4.5 -4.609375 L 4.5 -23.90625 C 4.5 -24.726562 3.691406 -25.222656 2.078125 -25.390625 C 1.722656 -25.421875 1.472656 -25.4375 1.328125 -25.4375 C 1.179688 -25.4375 1.109375 -25.488281 1.109375 -25.59375 L 1.109375 -26.03125 C 1.109375 -26.132812 1.160156 -26.1875 1.265625 -26.1875 L 8.0625 -26.1875 L 25.6875 -6.703125 C 25.75 -6.640625 25.789062 -6.59375 25.8125 -6.5625 C 25.832031 -6.53125 25.867188 -6.515625 25.921875 -6.515625 C 25.984375 -6.515625 26.015625 -6.570312 26.015625 -6.6875 L 26.015625 -19.484375 C 26.015625 -21.941406 25.8125 -23.546875 25.40625 -24.296875 C 25 -25.054688 24.175781 -25.4375 22.9375 -25.4375 L 21.984375 -25.4375 C 21.890625 -25.4375 21.84375 -25.488281 21.84375 -25.59375 L 21.84375 -26.03125 C 21.84375 -26.132812 21.890625 -26.1875 21.984375 -26.1875 L 31.640625 -26.1875 C 31.742188 -26.1875 31.796875 -26.132812 31.796875 -26.03125 L 31.796875 -25.59375 C 31.796875 -25.488281 31.613281 -25.4375 31.25 -25.4375 C 30.882812 -25.4375 30.28125 -25.222656 29.4375 -24.796875 C 28.601562 -24.378906 28.1875 -23.863281 28.1875 -23.25 L 28.1875 -0.53125 C 28.1875 -0.257812 28.148438 -0.0664062 28.078125 0.046875 C 28.003906 0.160156 27.828125 0.21875 27.546875 0.21875 C 27.265625 0.21875 27.054688 0.160156 26.921875 0.046875 C 26.785156 -0.0546875 26.625 -0.210938 26.4375 -0.421875 L 7.296875 -21.65625 C 7.171875 -21.78125 7.0625 -21.84375 6.96875 -21.84375 C 6.90625 -21.84375 6.875 -21.78125 6.875 -21.65625 L 6.875 -3.125 C 6.875 -2 7.765625 -1.253906 9.546875 -0.890625 C 10.035156 -0.796875 10.410156 -0.75 10.671875 -0.75 C 10.929688 -0.75 11.0625 -0.695312 11.0625 -0.59375 L 11.0625 -0.15625 C 11.0625 -0.0507812 11.015625 0 10.921875 0 Z M 1.265625 0 "/></g></g></g><g fill="#ffffff" fill-opacity="1"><g transform="translate(201.689392, 334.131825)"><g/></g></g><g fill="#ffffff" fill-opacity="1"><g transform="translate(214.714327, 334.131825)"><g><path d="M 24.984375 -0.703125 C 24.921875 -0.609375 24.765625 -0.585938 24.515625 -0.640625 C 24.273438 -0.691406 23.992188 -0.71875 23.671875 -0.71875 C 23.347656 -0.71875 22.894531 -0.648438 22.3125 -0.515625 C 21.726562 -0.390625 20.800781 -0.191406 19.53125 0.078125 C 18.269531 0.359375 17.117188 0.5 16.078125 0.5 C 13.722656 0.5 11.441406 -0.0507812 9.234375 -1.15625 C 7.023438 -2.269531 5.257812 -3.84375 3.9375 -5.875 C 2.613281 -7.914062 1.953125 -10.273438 1.953125 -12.953125 C 1.953125 -15.640625 2.613281 -18.078125 3.9375 -20.265625 C 5.863281 -23.453125 8.773438 -25.53125 12.671875 -26.5 C 13.898438 -26.8125 15.132812 -26.96875 16.375 -26.96875 C 18.070312 -26.96875 20.082031 -26.679688 22.40625 -26.109375 C 23.113281 -25.929688 23.710938 -25.75 24.203125 -25.5625 C 24.691406 -25.382812 24.992188 -25.296875 25.109375 -25.296875 L 25.65625 -25.4375 L 26.234375 -25.4375 C 26.390625 -25.4375 26.46875 -25.332031 26.46875 -25.125 L 26.46875 -19.34375 C 26.46875 -19.226562 26.351562 -19.171875 26.125 -19.171875 C 25.90625 -19.171875 25.773438 -19.195312 25.734375 -19.25 C 25.703125 -19.300781 25.664062 -19.367188 25.625 -19.453125 C 25.59375 -19.535156 25.550781 -19.617188 25.5 -19.703125 C 25.457031 -19.785156 25.414062 -19.863281 25.375 -19.9375 C 25.332031 -20.019531 25.304688 -20.078125 25.296875 -20.109375 C 23.429688 -23.835938 20.613281 -25.703125 16.84375 -25.703125 C 13.4375 -25.703125 10.773438 -24.617188 8.859375 -22.453125 C 6.941406 -20.285156 5.984375 -17.414062 5.984375 -13.84375 C 5.984375 -10.269531 7.035156 -7.203125 9.140625 -4.640625 C 11.253906 -2.078125 14.125 -0.796875 17.75 -0.796875 C 19.726562 -0.796875 21.53125 -1.382812 23.15625 -2.5625 C 24.789062 -3.738281 26.070312 -5.179688 27 -6.890625 C 27.019531 -6.960938 27.09375 -7 27.21875 -7 L 27.46875 -7 C 27.59375 -7 27.65625 -6.925781 27.65625 -6.78125 C 27.65625 -6.632812 27.617188 -6.488281 27.546875 -6.34375 Z M 24.984375 -0.703125 "/></g></g></g><g fill="#ffffff" fill-opacity="1"><g transform="translate(246.60048, 334.131825)"><g><path d="M 23.8125 -1.59375 C 22.726562 -0.9375 21.546875 -0.421875 20.265625 -0.046875 C 18.992188 0.316406 17.863281 0.5 16.875 0.5 C 14.84375 0.5 12.90625 0.171875 11.0625 -0.484375 C 8.539062 -1.398438 6.515625 -2.753906 4.984375 -4.546875 C 3.023438 -6.835938 2.046875 -9.742188 2.046875 -13.265625 C 2.046875 -15.796875 2.691406 -18.101562 3.984375 -20.1875 C 5.285156 -22.28125 7.082031 -23.929688 9.375 -25.140625 C 11.675781 -26.359375 14.148438 -26.96875 16.796875 -26.96875 C 19.441406 -26.96875 21.804688 -26.378906 23.890625 -25.203125 C 25.984375 -24.023438 27.660156 -22.40625 28.921875 -20.34375 C 30.191406 -18.289062 30.828125 -16.066406 30.828125 -13.671875 C 30.828125 -11.273438 30.203125 -9 28.953125 -6.84375 C 27.703125 -4.6875 25.988281 -2.9375 23.8125 -1.59375 Z M 5.9375 -13.84375 C 5.9375 -11.789062 6.390625 -9.753906 7.296875 -7.734375 C 8.210938 -5.710938 9.519531 -4.0625 11.21875 -2.78125 C 12.914062 -1.507812 14.878906 -0.875 17.109375 -0.875 C 20.273438 -0.875 22.742188 -2.085938 24.515625 -4.515625 C 26.109375 -6.703125 26.90625 -9.5 26.90625 -12.90625 C 26.90625 -16.3125 25.925781 -19.242188 23.96875 -21.703125 C 23.019531 -22.910156 21.851562 -23.875 20.46875 -24.59375 C 19.09375 -25.320312 17.703125 -25.6875 16.296875 -25.6875 C 14.890625 -25.6875 13.738281 -25.53125 12.84375 -25.21875 C 11.945312 -24.90625 11.128906 -24.476562 10.390625 -23.9375 C 9.660156 -23.40625 9.015625 -22.765625 8.453125 -22.015625 C 7.898438 -21.273438 7.441406 -20.472656 7.078125 -19.609375 C 6.316406 -17.828125 5.9375 -15.90625 5.9375 -13.84375 Z M 5.9375 -13.84375 "/></g></g></g><g fill="#ffffff" fill-opacity="1"><g transform="translate(282.273729, 334.131825)"><g><path d="M 0.96875 0 C 0.863281 0 0.8125 -0.125 0.8125 -0.375 L 0.8125 -0.59375 C 0.8125 -0.695312 0.863281 -0.75 0.96875 -0.75 C 1.039062 -0.75 1.15625 -0.757812 1.3125 -0.78125 C 1.476562 -0.800781 1.644531 -0.820312 1.8125 -0.84375 C 1.988281 -0.875 2.148438 -0.90625 2.296875 -0.9375 C 2.453125 -0.96875 2.5625 -0.988281 2.625 -1 C 3.882812 -1.289062 4.515625 -2.007812 4.515625 -3.15625 L 4.515625 -22.765625 C 4.515625 -23.828125 4.085938 -24.582031 3.234375 -25.03125 C 2.722656 -25.300781 2.175781 -25.4375 1.59375 -25.4375 L 0.890625 -25.4375 C 0.796875 -25.4375 0.75 -25.488281 0.75 -25.59375 L 0.75 -26.03125 C 0.75 -26.132812 0.820312 -26.1875 0.96875 -26.1875 L 11.15625 -26.46875 L 13.03125 -26.46875 C 15.226562 -26.3125 17.066406 -25.507812 18.546875 -24.0625 C 20.023438 -22.625 20.765625 -20.847656 20.765625 -18.734375 C 20.765625 -16.628906 19.882812 -14.988281 18.125 -13.8125 C 17.582031 -13.457031 16.992188 -13.132812 16.359375 -12.84375 L 21.984375 -3.65625 C 22.960938 -2.050781 24.273438 -0.921875 25.921875 -0.265625 C 26.054688 -0.222656 26.125 -0.132812 26.125 0 C 26.125 0.3125 25.921875 0.46875 25.515625 0.46875 C 22.734375 0.46875 20.515625 -0.59375 18.859375 -2.71875 C 18.503906 -3.1875 18.148438 -3.710938 17.796875 -4.296875 L 12.984375 -11.828125 L 8.5625 -12.03125 L 8.40625 -12.03125 C 8.226562 -12.03125 8.140625 -11.941406 8.140625 -11.765625 L 8.140625 -3.21875 C 8.140625 -2.53125 8.328125 -2.019531 8.703125 -1.6875 C 9.085938 -1.351562 9.753906 -1.125 10.703125 -1 C 10.941406 -0.96875 11.238281 -0.914062 11.59375 -0.84375 C 11.957031 -0.78125 12.203125 -0.75 12.328125 -0.75 C 12.460938 -0.75 12.53125 -0.695312 12.53125 -0.59375 L 12.53125 -0.15625 C 12.53125 -0.0507812 12.484375 0 12.390625 0 Z M 9.640625 -25.484375 C 9.492188 -25.484375 9.332031 -25.476562 9.15625 -25.46875 C 8.988281 -25.457031 8.773438 -25.445312 8.515625 -25.4375 C 8.265625 -25.4375 8.140625 -25.335938 8.140625 -25.140625 L 8.140625 -13.890625 L 8.171875 -13.328125 C 8.203125 -13.066406 8.320312 -12.929688 8.53125 -12.921875 L 10.421875 -12.8125 C 13.898438 -12.8125 16 -14.050781 16.71875 -16.53125 C 16.945312 -17.3125 17.0625 -18.203125 17.0625 -19.203125 C 17.0625 -21.160156 16.453125 -22.703125 15.234375 -23.828125 C 14.015625 -24.953125 12.457031 -25.515625 10.5625 -25.515625 C 10.394531 -25.515625 10.234375 -25.507812 10.078125 -25.5 C 9.929688 -25.5 9.785156 -25.492188 9.640625 -25.484375 Z M 9.640625 -25.484375 "/></g></g></g><g fill="#ffffff" fill-opacity="1"><g transform="translate(311.430946, 334.131825)"><g><path d="M 0.125 -0.15625 L 0.125 -0.671875 C 0.125 -0.765625 0.175781 -0.8125 0.28125 -0.8125 L 0.6875 -0.8125 C 1.207031 -0.851562 1.738281 -0.875 2.28125 -0.875 C 2.820312 -0.882812 3.316406 -0.953125 3.765625 -1.078125 C 4.785156 -1.367188 5.296875 -2.113281 5.296875 -3.3125 L 5.296875 -22.875 C 5.296875 -24.101562 4.570312 -24.882812 3.125 -25.21875 C 2.707031 -25.300781 2.289062 -25.375 1.875 -25.4375 L 1.484375 -25.4375 C 1.390625 -25.4375 1.34375 -25.488281 1.34375 -25.59375 L 1.34375 -26.03125 C 1.34375 -26.132812 1.390625 -26.1875 1.484375 -26.1875 L 19.140625 -26.1875 C 19.367188 -26.1875 19.53125 -26.144531 19.625 -26.0625 C 19.726562 -25.976562 19.789062 -25.800781 19.8125 -25.53125 L 20.140625 -20.140625 C 20.140625 -20.023438 20.046875 -19.96875 19.859375 -19.96875 C 19.679688 -19.96875 19.550781 -20.019531 19.46875 -20.125 C 19.382812 -20.25 19.285156 -20.703125 19.171875 -21.484375 C 19.054688 -22.265625 18.84375 -22.914062 18.53125 -23.4375 C 18.21875 -23.957031 17.675781 -24.285156 16.90625 -24.421875 L 9.15625 -24.421875 C 8.988281 -24.421875 8.90625 -24.335938 8.90625 -24.171875 L 8.90625 -14.578125 C 8.90625 -14.453125 8.96875 -14.390625 9.09375 -14.390625 L 15.53125 -14.390625 C 17.1875 -14.390625 18.015625 -15.351562 18.015625 -17.28125 C 18.015625 -17.382812 18.0625 -17.4375 18.15625 -17.4375 L 18.609375 -17.4375 C 18.703125 -17.4375 18.75 -17.382812 18.75 -17.28125 L 18.75 -9.34375 C 18.75 -9.238281 18.703125 -9.1875 18.609375 -9.1875 L 18.15625 -9.1875 C 18.0625 -9.1875 18.015625 -9.238281 18.015625 -9.34375 C 18.015625 -11.175781 17.484375 -12.234375 16.421875 -12.515625 C 16.117188 -12.585938 15.800781 -12.625 15.46875 -12.625 L 9.09375 -12.625 C 8.96875 -12.625 8.90625 -12.5625 8.90625 -12.4375 L 8.90625 -3.390625 C 8.90625 -2.460938 9.332031 -1.9375 10.1875 -1.8125 C 10.4375 -1.78125 10.695312 -1.765625 10.96875 -1.765625 L 17.15625 -1.765625 C 18.4375 -1.765625 19.425781 -2.328125 20.125 -3.453125 C 20.632812 -4.253906 20.945312 -5.175781 21.0625 -6.21875 C 21.09375 -6.5625 21.273438 -6.734375 21.609375 -6.734375 C 21.765625 -6.734375 21.84375 -6.65625 21.84375 -6.5 L 21.21875 -0.265625 C 21.144531 -0.0859375 21.0625 0 20.96875 0 L 0.28125 0 C 0.175781 0 0.125 -0.0507812 0.125 -0.15625 Z M 0.125 -0.15625 "/></g></g></g></svg>