<svg xmlns="http://www.w3.org/2000/svg" xmlns:xlink="http://www.w3.org/1999/xlink" width="1920" zoomAndPan="magnify" viewBox="0 0 1440 809.999993" height="1080" preserveAspectRatio="xMidYMid meet" version="1.0"><defs><g/></defs><rect x="-144" width="1728" fill="#ffffff" y="-80.999999" height="971.999992" fill-opacity="1"/><g fill="#ffffff" fill-opacity="1"><g transform="translate(114.2775, 519.353751)"><g><path d="M 150.671875 -3.875 L 44.9375 -259.890625 C 43.382812 -263.503906 39.832031 -265.828125 34.28125 -266.859375 C 28.726562 -267.898438 24.53125 -268.421875 21.6875 -268.421875 L 19.359375 -268.421875 L 19.359375 -274.234375 L 82.5 -274.234375 L 82.5 -268.421875 L 79.796875 -268.421875 C 77.722656 -268.421875 74.878906 -268.160156 71.265625 -267.640625 C 67.648438 -267.128906 64.679688 -266.289062 62.359375 -265.125 C 60.035156 -263.96875 59.257812 -262.097656 60.03125 -259.515625 L 158.421875 -22.078125 L 256.40625 -259.515625 C 257.4375 -262.097656 256.46875 -264.03125 253.5 -265.3125 C 250.53125 -266.601562 246.914062 -267.441406 242.65625 -267.828125 C 238.394531 -268.222656 234.847656 -268.421875 232.015625 -268.421875 L 227.75 -268.421875 L 227.75 -274.234375 L 291.265625 -274.234375 L 291.265625 -268.421875 L 290.109375 -268.421875 C 288.554688 -268.421875 285.78125 -268.222656 281.78125 -267.828125 C 277.78125 -267.441406 273.90625 -266.664062 270.15625 -265.5 C 266.414062 -264.34375 263.898438 -262.347656 262.609375 -259.515625 L 161.515625 -14.71875 L 155.3125 0 L 152.21875 0 Z M 150.671875 -3.875 "/></g></g></g><g fill="#ffffff" fill-opacity="1"><g transform="translate(42.961401, 532.631135)"><g><path d="M 121.734375 -213.703125 C 110.597656 -213.503906 100.019531 -210.570312 90 -204.90625 C 79.988281 -199.238281 71.132812 -191.347656 63.4375 -181.234375 C 55.550781 -171.109375 49.53125 -159.566406 45.375 -146.609375 C 41.226562 -133.660156 39.15625 -120.003906 39.15625 -105.640625 C 39.15625 -91.472656 41.226562 -77.863281 45.375 -64.8125 C 49.53125 -51.757812 55.550781 -40.171875 63.4375 -30.046875 C 71.132812 -19.929688 79.988281 -12.085938 90 -6.515625 C 100.019531 -0.953125 110.492188 2.023438 121.421875 2.421875 L 122.03125 2.421875 C 122.84375 2.421875 123.453125 2.421875 123.859375 2.421875 C 124.054688 2.421875 124.359375 2.421875 124.765625 2.421875 C 125.171875 2.421875 125.472656 2.421875 125.671875 2.421875 C 141.660156 1.816406 156.234375 -3.894531 169.390625 -14.71875 C 182.546875 -25.550781 192.5625 -39.972656 199.4375 -57.984375 C 199.644531 -58.390625 199.945312 -58.59375 200.34375 -58.59375 C 200.75 -58.59375 200.953125 -58.390625 200.953125 -57.984375 L 208.84375 -37.03125 C 209.050781 -36.832031 209.050781 -36.628906 208.84375 -36.421875 C 198.726562 -23.878906 186.382812 -14.066406 171.8125 -6.984375 C 157.238281 0.0976562 141.960938 3.742188 125.984375 3.953125 L 125.375 3.953125 C 124.96875 3.953125 124.460938 3.953125 123.859375 3.953125 C 123.242188 3.953125 122.535156 3.953125 121.734375 3.953125 C 107.359375 3.742188 93.539062 0.804688 80.28125 -4.859375 C 67.03125 -10.523438 55.445312 -18.519531 45.53125 -28.84375 C 35.414062 -39.15625 27.625 -50.941406 22.15625 -64.203125 C 16.695312 -77.460938 13.96875 -91.273438 13.96875 -105.640625 C 13.96875 -120.003906 16.695312 -133.863281 22.15625 -147.21875 C 27.625 -160.582031 35.414062 -172.425781 45.53125 -182.75 C 55.445312 -192.863281 66.984375 -200.800781 80.140625 -206.5625 C 93.296875 -212.332031 107.054688 -215.320312 121.421875 -215.53125 L 122.328125 -215.53125 C 122.734375 -215.53125 123.242188 -215.53125 123.859375 -215.53125 C 124.253906 -215.53125 124.960938 -215.53125 125.984375 -215.53125 C 141.960938 -215.125 157.1875 -211.425781 171.65625 -204.4375 C 186.132812 -197.457031 198.53125 -187.695312 208.84375 -175.15625 C 209.050781 -174.957031 209.050781 -174.65625 208.84375 -174.25 L 200.953125 -153.296875 C 200.953125 -153.097656 200.75 -153 200.34375 -153 C 199.945312 -153 199.644531 -153.097656 199.4375 -153.296875 C 192.5625 -171.515625 182.546875 -186.035156 169.390625 -196.859375 C 156.234375 -207.679688 141.765625 -213.296875 125.984375 -213.703125 L 125.375 -214.015625 C 124.96875 -214.015625 124.460938 -214.015625 123.859375 -214.015625 C 123.242188 -214.015625 122.535156 -213.910156 121.734375 -213.703125 Z M 121.734375 -213.703125 "/></g></g></g><g fill="#ffffff" fill-opacity="1"><g transform="translate(382.570181, 449.677051)"><g><path d="M 101.46875 -93.21875 C 101.46875 -92.863281 101.289062 -92.6875 100.9375 -92.6875 L 98.4375 -92.6875 C 92.707031 -91.550781 88.488281 -86.859375 85.78125 -78.609375 C 85.0625 -76.441406 84.316406 -74.34375 83.546875 -72.3125 L 56.96875 -0.546875 C 56.5625 0.585938 56.0625 1.265625 55.46875 1.484375 C 54.882812 1.710938 54.070312 1.828125 53.03125 1.828125 L 49.859375 1.828125 C 48.773438 1.828125 48.078125 1.332031 47.765625 0.34375 L 12.109375 -86.046875 C 10.660156 -89.609375 7.097656 -91.796875 1.421875 -92.609375 C 1.109375 -92.660156 0.847656 -92.6875 0.640625 -92.6875 C 0.441406 -92.6875 0.34375 -92.863281 0.34375 -93.21875 L 0.34375 -94.84375 C 0.34375 -95.207031 0.519531 -95.390625 0.875 -95.390625 L 40.796875 -95.390625 C 41.148438 -95.390625 41.328125 -95.207031 41.328125 -94.84375 L 41.328125 -93.21875 C 41.328125 -92.863281 41.148438 -92.6875 40.796875 -92.6875 L 39.78125 -92.6875 C 38.65625 -92.5 37.347656 -92.316406 35.859375 -92.140625 C 30.078125 -91.421875 27.1875 -89.117188 27.1875 -85.234375 C 27.1875 -84.015625 27.503906 -82.707031 28.140625 -81.3125 L 53.78125 -18.9375 C 54.226562 -18.039062 54.703125 -18.066406 55.203125 -19.015625 L 78.75 -82.734375 C 79.0625 -83.640625 79.21875 -84.710938 79.21875 -85.953125 C 79.21875 -87.191406 78.695312 -88.382812 77.65625 -89.53125 C 76.625 -90.6875 75.578125 -91.351562 74.515625 -91.53125 C 73.453125 -91.707031 72.613281 -91.84375 72 -91.9375 C 71.394531 -92.03125 70.484375 -92.175781 69.265625 -92.375 C 68.054688 -92.582031 67.25 -92.6875 66.84375 -92.6875 C 66.4375 -92.6875 66.234375 -92.863281 66.234375 -93.21875 L 66.234375 -94.84375 C 66.234375 -95.207031 66.410156 -95.390625 66.765625 -95.390625 L 100.9375 -95.390625 C 101.289062 -95.390625 101.46875 -95.207031 101.46875 -94.84375 Z M 101.46875 -93.21875 "/></g></g></g><g fill="#ffffff" fill-opacity="1"><g transform="translate(494.62277, 449.677051)"><g><path d="M 17.046875 -84.5625 C 17.046875 -89.976562 13.9375 -92.6875 7.71875 -92.6875 C 6.71875 -92.6875 6.21875 -92.863281 6.21875 -93.21875 L 6.21875 -94.84375 C 6.21875 -95.207031 6.398438 -95.390625 6.765625 -95.390625 L 40.65625 -95.390625 C 41.019531 -95.390625 41.203125 -95.207031 41.203125 -94.84375 L 41.203125 -93.21875 C 41.203125 -92.863281 40.207031 -92.6875 38.21875 -92.6875 C 36.238281 -92.6875 34.410156 -92.050781 32.734375 -90.78125 C 31.066406 -89.519531 30.234375 -86.925781 30.234375 -83 L 30.234375 -10.828125 C 30.234375 -5.410156 33.367188 -2.703125 39.640625 -2.703125 C 40.585938 -2.703125 41.0625 -2.523438 41.0625 -2.171875 L 41.0625 -0.546875 C 41.0625 -0.179688 40.878906 0 40.515625 0 L 6.625 0 C 6.269531 0 6.09375 -0.179688 6.09375 -0.546875 L 6.09375 -2.171875 C 6.09375 -2.523438 7.082031 -2.703125 9.0625 -2.703125 C 11.050781 -2.703125 12.878906 -3.332031 14.546875 -4.59375 C 16.210938 -5.863281 17.046875 -8.457031 17.046875 -12.375 Z M 17.046875 -84.5625 "/></g></g></g><g fill="#ffffff" fill-opacity="1"><g transform="translate(552.157975, 449.677051)"><g><path d="M 57.09375 -94.578125 C 57.539062 -94.578125 57.765625 -94.082031 57.765625 -93.09375 L 59.53125 -78.671875 C 59.707031 -77.773438 59.796875 -77.203125 59.796875 -76.953125 C 59.796875 -76.703125 59.445312 -76.578125 58.75 -76.578125 C 58.050781 -76.578125 57.613281 -76.664062 57.4375 -76.84375 C 57.257812 -77.03125 57.078125 -77.335938 56.890625 -77.765625 C 56.710938 -78.191406 56.5 -78.675781 56.25 -79.21875 C 56 -79.757812 55.738281 -80.300781 55.46875 -80.84375 C 54.519531 -82.914062 53.035156 -84.96875 51.015625 -87 C 46.046875 -91.78125 40.453125 -94.171875 34.234375 -94.171875 C 30.484375 -94.171875 26.941406 -92.953125 23.609375 -90.515625 C 20.273438 -88.078125 18.609375 -85.203125 18.609375 -81.890625 C 18.609375 -78.578125 19.226562 -75.703125 20.46875 -73.265625 C 21.707031 -70.828125 23.335938 -68.570312 25.359375 -66.5 C 27.390625 -64.425781 29.710938 -62.441406 32.328125 -60.546875 C 34.953125 -58.648438 37.613281 -56.734375 40.3125 -54.796875 C 47.488281 -49.785156 52.585938 -45.5 55.609375 -41.9375 C 60.347656 -36.4375 62.914062 -30.257812 63.3125 -23.40625 C 63.3125 -15.738281 60.367188 -9.613281 54.484375 -5.03125 C 48.597656 -0.457031 41.753906 1.828125 33.953125 1.828125 C 28.953125 1.828125 24.972656 1.316406 22.015625 0.296875 C 19.066406 -0.710938 17.023438 -1.441406 15.890625 -1.890625 C 14.765625 -2.347656 13.941406 -2.578125 13.421875 -2.578125 C 12.910156 -2.578125 12.585938 -2.550781 12.453125 -2.5 L 9.125 -1.828125 C 8.539062 -1.828125 8.179688 -2.300781 8.046875 -3.25 C 6.742188 -14.4375 6.09375 -20.378906 6.09375 -21.078125 C 6.09375 -21.773438 6.144531 -22.242188 6.25 -22.484375 C 6.363281 -22.734375 6.671875 -22.859375 7.171875 -22.859375 C 8.429688 -22.859375 9.582031 -21.054688 10.625 -17.453125 C 15.351562 -7.304688 23.222656 -2.234375 34.234375 -2.234375 C 39.285156 -2.234375 43.601562 -3.765625 47.1875 -6.828125 C 50.769531 -9.898438 52.5625 -13.894531 52.5625 -18.8125 C 52.5625 -26.65625 47.875 -33.957031 38.5 -40.71875 C 35.832031 -42.613281 31.992188 -45.253906 26.984375 -48.640625 C 21.984375 -52.023438 17.992188 -55.40625 15.015625 -58.78125 C 10.367188 -64.019531 8.046875 -69.851562 8.046875 -76.28125 C 8.046875 -82.707031 10.601562 -87.972656 15.71875 -92.078125 C 20.84375 -96.179688 26.71875 -98.234375 33.34375 -98.234375 C 36.78125 -98.234375 40.5625 -97.644531 44.6875 -96.46875 C 48.8125 -95.289062 51.6875 -94.5 53.3125 -94.09375 Z M 57.09375 -94.578125 "/></g></g></g><g fill="#ffffff" fill-opacity="1"><g transform="translate(631.81129, 449.677051)"><g><path d="M 17.046875 -84.5625 C 17.046875 -89.976562 13.9375 -92.6875 7.71875 -92.6875 C 6.71875 -92.6875 6.21875 -92.863281 6.21875 -93.21875 L 6.21875 -94.84375 C 6.21875 -95.207031 6.398438 -95.390625 6.765625 -95.390625 L 40.65625 -95.390625 C 41.019531 -95.390625 41.203125 -95.207031 41.203125 -94.84375 L 41.203125 -93.21875 C 41.203125 -92.863281 40.207031 -92.6875 38.21875 -92.6875 C 36.238281 -92.6875 34.410156 -92.050781 32.734375 -90.78125 C 31.066406 -89.519531 30.234375 -86.925781 30.234375 -83 L 30.234375 -10.828125 C 30.234375 -5.410156 33.367188 -2.703125 39.640625 -2.703125 C 40.585938 -2.703125 41.0625 -2.523438 41.0625 -2.171875 L 41.0625 -0.546875 C 41.0625 -0.179688 40.878906 0 40.515625 0 L 6.625 0 C 6.269531 0 6.09375 -0.179688 6.09375 -0.546875 L 6.09375 -2.171875 C 6.09375 -2.523438 7.082031 -2.703125 9.0625 -2.703125 C 11.050781 -2.703125 12.878906 -3.332031 14.546875 -4.59375 C 16.210938 -5.863281 17.046875 -8.457031 17.046875 -12.375 Z M 17.046875 -84.5625 "/></g></g></g><g fill="#ffffff" fill-opacity="1"><g transform="translate(689.34651, 449.677051)"><g><path d="M 86.734375 -5.8125 C 82.804688 -3.425781 78.519531 -1.554688 73.875 -0.203125 C 69.226562 1.148438 65.101562 1.828125 61.5 1.828125 C 54.101562 1.828125 47.039062 0.628906 40.3125 -1.765625 C 31.113281 -5.097656 23.71875 -10.035156 18.125 -16.578125 C 11 -24.921875 7.4375 -35.492188 7.4375 -48.296875 C 7.4375 -57.546875 9.800781 -65.96875 14.53125 -73.5625 C 19.269531 -81.164062 25.820312 -87.175781 34.1875 -91.59375 C 42.5625 -96.019531 51.5625 -98.234375 61.1875 -98.234375 C 70.8125 -98.234375 79.4375 -96.085938 87.0625 -91.796875 C 94.6875 -87.515625 100.796875 -81.628906 105.390625 -74.140625 C 109.992188 -66.660156 112.296875 -58.554688 112.296875 -49.828125 C 112.296875 -41.097656 110.019531 -32.796875 105.46875 -24.921875 C 100.914062 -17.054688 94.671875 -10.6875 86.734375 -5.8125 Z M 21.640625 -50.46875 C 21.640625 -42.976562 23.296875 -35.546875 26.609375 -28.171875 C 29.929688 -20.796875 34.679688 -14.785156 40.859375 -10.140625 C 47.035156 -5.492188 54.1875 -3.171875 62.3125 -3.171875 C 73.851562 -3.171875 82.847656 -7.59375 89.296875 -16.4375 C 95.117188 -24.414062 98.03125 -34.609375 98.03125 -47.015625 C 98.03125 -59.421875 94.46875 -70.109375 87.34375 -79.078125 C 83.863281 -83.453125 79.609375 -86.957031 74.578125 -89.59375 C 69.554688 -92.238281 64.484375 -93.5625 59.359375 -93.5625 C 54.242188 -93.5625 50.050781 -92.992188 46.78125 -91.859375 C 43.507812 -90.734375 40.539062 -89.191406 37.875 -87.234375 C 35.21875 -85.273438 32.875 -82.941406 30.84375 -80.234375 C 28.8125 -77.523438 27.125 -74.59375 25.78125 -71.4375 C 23.019531 -64.945312 21.640625 -57.957031 21.640625 -50.46875 Z M 21.640625 -50.46875 "/></g></g></g><g fill="#ffffff" fill-opacity="1"><g transform="translate(819.323566, 449.677051)"><g><path d="M 4.59375 0 C 4.238281 0 4.0625 -0.179688 4.0625 -0.546875 L 4.0625 -2.171875 C 4.0625 -2.523438 4.285156 -2.703125 4.734375 -2.703125 L 6.296875 -2.703125 C 8.773438 -2.703125 10.460938 -2.925781 11.359375 -3.375 C 14.703125 -5 16.375 -9.46875 16.375 -16.78125 L 16.375 -87.0625 C 16.375 -90.082031 13.441406 -91.890625 7.578125 -92.484375 C 6.265625 -92.617188 5.347656 -92.6875 4.828125 -92.6875 C 4.316406 -92.6875 4.0625 -92.863281 4.0625 -93.21875 L 4.0625 -94.84375 C 4.0625 -95.207031 4.238281 -95.390625 4.59375 -95.390625 L 29.359375 -95.390625 L 93.5625 -24.421875 C 93.78125 -24.191406 93.9375 -24.019531 94.03125 -23.90625 C 94.125 -23.800781 94.269531 -23.75 94.46875 -23.75 C 94.675781 -23.75 94.78125 -23.953125 94.78125 -24.359375 L 94.78125 -70.96875 C 94.78125 -79.9375 94.035156 -85.796875 92.546875 -88.546875 C 91.054688 -91.304688 88.054688 -92.6875 83.546875 -92.6875 L 80.09375 -92.6875 C 79.738281 -92.6875 79.5625 -92.863281 79.5625 -93.21875 L 79.5625 -94.84375 C 79.5625 -95.207031 79.738281 -95.390625 80.09375 -95.390625 L 115.28125 -95.390625 C 115.632812 -95.390625 115.8125 -95.207031 115.8125 -94.84375 L 115.8125 -93.21875 C 115.8125 -92.863281 115.144531 -92.6875 113.8125 -92.6875 C 112.488281 -92.6875 110.300781 -91.914062 107.25 -90.375 C 104.207031 -88.84375 102.6875 -86.953125 102.6875 -84.703125 L 102.6875 -1.96875 C 102.6875 -0.96875 102.550781 -0.253906 102.28125 0.171875 C 102.007812 0.597656 101.367188 0.8125 100.359375 0.8125 C 99.347656 0.8125 98.59375 0.609375 98.09375 0.203125 C 97.59375 -0.203125 97.003906 -0.789062 96.328125 -1.5625 L 26.59375 -78.875 C 26.132812 -79.332031 25.726562 -79.5625 25.375 -79.5625 C 25.144531 -79.5625 25.03125 -79.332031 25.03125 -78.875 L 25.03125 -11.359375 C 25.03125 -7.253906 28.273438 -4.550781 34.765625 -3.25 C 36.578125 -2.882812 37.953125 -2.703125 38.890625 -2.703125 C 39.835938 -2.703125 40.3125 -2.523438 40.3125 -2.171875 L 40.3125 -0.546875 C 40.3125 -0.179688 40.132812 0 39.78125 0 Z M 4.59375 0 "/></g></g></g><g fill="#ffffff" fill-opacity="1"><g transform="translate(947.744885, 449.677051)"><g/></g></g><g fill="#ffffff" fill-opacity="1"><g transform="translate(995.201799, 449.677051)"><g><path d="M 90.984375 -2.578125 C 90.765625 -2.210938 90.210938 -2.128906 89.328125 -2.328125 C 88.453125 -2.535156 87.425781 -2.640625 86.25 -2.640625 C 85.082031 -2.640625 83.425781 -2.398438 81.28125 -1.921875 C 79.132812 -1.453125 75.757812 -0.710938 71.15625 0.296875 C 66.5625 1.316406 62.367188 1.828125 58.578125 1.828125 C 50.015625 1.828125 41.707031 -0.1875 33.65625 -4.21875 C 25.601562 -8.257812 19.164062 -13.988281 14.34375 -21.40625 C 9.519531 -28.832031 7.109375 -37.4375 7.109375 -47.21875 C 7.109375 -57.007812 9.519531 -65.875 14.34375 -73.8125 C 21.375 -85.445312 31.972656 -93.019531 46.140625 -96.53125 C 50.648438 -97.664062 55.160156 -98.234375 59.671875 -98.234375 C 65.847656 -98.234375 73.175781 -97.191406 81.65625 -95.109375 C 84.226562 -94.484375 86.40625 -93.832031 88.1875 -93.15625 C 89.96875 -92.476562 91.0625 -92.140625 91.46875 -92.140625 L 93.484375 -92.6875 L 95.59375 -92.6875 C 96.132812 -92.6875 96.40625 -92.300781 96.40625 -91.53125 L 96.40625 -70.484375 C 96.40625 -70.035156 96 -69.8125 95.1875 -69.8125 C 94.375 -69.8125 93.898438 -69.910156 93.765625 -70.109375 C 93.628906 -70.316406 93.492188 -70.566406 93.359375 -70.859375 C 93.222656 -71.148438 93.078125 -71.453125 92.921875 -71.765625 C 92.765625 -72.085938 92.601562 -72.382812 92.4375 -72.65625 C 92.28125 -72.925781 92.179688 -73.128906 92.140625 -73.265625 C 85.367188 -86.835938 75.109375 -93.625 61.359375 -93.625 C 48.953125 -93.625 39.253906 -89.675781 32.265625 -81.78125 C 25.273438 -73.894531 21.78125 -63.445312 21.78125 -50.4375 C 21.78125 -37.425781 25.625 -26.25 33.3125 -16.90625 C 41.007812 -7.570312 51.460938 -2.90625 64.671875 -2.90625 C 71.890625 -2.90625 78.460938 -5.046875 84.390625 -9.328125 C 90.328125 -13.617188 94.984375 -18.875 98.359375 -25.09375 C 98.453125 -25.363281 98.722656 -25.5 99.171875 -25.5 L 100.046875 -25.5 C 100.503906 -25.5 100.734375 -25.226562 100.734375 -24.6875 C 100.734375 -24.144531 100.597656 -23.628906 100.328125 -23.140625 Z M 90.984375 -2.578125 "/></g></g></g><g fill="#ffffff" fill-opacity="1"><g transform="translate(1111.380379, 449.677051)"><g><path d="M 86.734375 -5.8125 C 82.804688 -3.425781 78.519531 -1.554688 73.875 -0.203125 C 69.226562 1.148438 65.101562 1.828125 61.5 1.828125 C 54.101562 1.828125 47.039062 0.628906 40.3125 -1.765625 C 31.113281 -5.097656 23.71875 -10.035156 18.125 -16.578125 C 11 -24.921875 7.4375 -35.492188 7.4375 -48.296875 C 7.4375 -57.546875 9.800781 -65.96875 14.53125 -73.5625 C 19.269531 -81.164062 25.820312 -87.175781 34.1875 -91.59375 C 42.5625 -96.019531 51.5625 -98.234375 61.1875 -98.234375 C 70.8125 -98.234375 79.4375 -96.085938 87.0625 -91.796875 C 94.6875 -87.515625 100.796875 -81.628906 105.390625 -74.140625 C 109.992188 -66.660156 112.296875 -58.554688 112.296875 -49.828125 C 112.296875 -41.097656 110.019531 -32.796875 105.46875 -24.921875 C 100.914062 -17.054688 94.671875 -10.6875 86.734375 -5.8125 Z M 21.640625 -50.46875 C 21.640625 -42.976562 23.296875 -35.546875 26.609375 -28.171875 C 29.929688 -20.796875 34.679688 -14.785156 40.859375 -10.140625 C 47.035156 -5.492188 54.1875 -3.171875 62.3125 -3.171875 C 73.851562 -3.171875 82.847656 -7.59375 89.296875 -16.4375 C 95.117188 -24.414062 98.03125 -34.609375 98.03125 -47.015625 C 98.03125 -59.421875 94.46875 -70.109375 87.34375 -79.078125 C 83.863281 -83.453125 79.609375 -86.957031 74.578125 -89.59375 C 69.554688 -92.238281 64.484375 -93.5625 59.359375 -93.5625 C 54.242188 -93.5625 50.050781 -92.992188 46.78125 -91.859375 C 43.507812 -90.734375 40.539062 -89.191406 37.875 -87.234375 C 35.21875 -85.273438 32.875 -82.941406 30.84375 -80.234375 C 28.8125 -77.523438 27.125 -74.59375 25.78125 -71.4375 C 23.019531 -64.945312 21.640625 -57.957031 21.640625 -50.46875 Z M 21.640625 -50.46875 "/></g></g></g><g fill="#ffffff" fill-opacity="1"><g transform="translate(1241.357404, 449.677051)"><g><path d="M 3.515625 0 C 3.160156 0 2.984375 -0.453125 2.984375 -1.359375 L 2.984375 -2.171875 C 2.984375 -2.523438 3.160156 -2.703125 3.515625 -2.703125 C 3.785156 -2.703125 4.210938 -2.75 4.796875 -2.84375 C 5.390625 -2.9375 6 -3.023438 6.625 -3.109375 C 7.257812 -3.203125 7.847656 -3.300781 8.390625 -3.40625 C 8.929688 -3.519531 9.3125 -3.601562 9.53125 -3.65625 C 14.132812 -4.6875 16.4375 -7.300781 16.4375 -11.5 L 16.4375 -82.9375 C 16.4375 -86.8125 14.878906 -89.5625 11.765625 -91.1875 C 9.921875 -92.1875 7.9375 -92.6875 5.8125 -92.6875 L 3.25 -92.6875 C 2.882812 -92.6875 2.703125 -92.863281 2.703125 -93.21875 L 2.703125 -94.84375 C 2.703125 -95.207031 2.972656 -95.390625 3.515625 -95.390625 L 40.65625 -96.40625 L 47.484375 -96.40625 C 55.472656 -95.863281 62.160156 -92.960938 67.546875 -87.703125 C 72.929688 -82.453125 75.625 -75.984375 75.625 -68.296875 C 75.625 -60.609375 72.425781 -54.617188 66.03125 -50.328125 C 64.039062 -49.023438 61.894531 -47.851562 59.59375 -46.8125 L 80.09375 -13.328125 C 83.65625 -7.460938 88.4375 -3.335938 94.4375 -0.953125 C 94.9375 -0.816406 95.1875 -0.5 95.1875 0 C 95.1875 1.125 94.441406 1.6875 92.953125 1.6875 C 82.804688 1.6875 74.734375 -2.164062 68.734375 -9.875 C 67.421875 -11.59375 66.113281 -13.507812 64.8125 -15.625 L 47.28125 -43.09375 L 31.1875 -43.84375 L 30.640625 -43.84375 C 29.960938 -43.84375 29.625 -43.523438 29.625 -42.890625 L 29.625 -11.703125 C 29.625 -9.222656 30.320312 -7.375 31.71875 -6.15625 C 33.125 -4.9375 35.539062 -4.101562 38.96875 -3.65625 C 39.863281 -3.519531 40.96875 -3.328125 42.28125 -3.078125 C 43.59375 -2.828125 44.484375 -2.703125 44.953125 -2.703125 C 45.421875 -2.703125 45.65625 -2.523438 45.65625 -2.171875 L 45.65625 -0.546875 C 45.65625 -0.179688 45.476562 0 45.125 0 Z M 35.109375 -92.84375 C 34.566406 -92.820312 33.988281 -92.800781 33.375 -92.78125 C 32.769531 -92.757812 31.992188 -92.738281 31.046875 -92.71875 C 30.097656 -92.695312 29.625 -92.320312 29.625 -91.59375 L 29.625 -50.609375 L 29.765625 -48.578125 C 29.898438 -47.628906 30.328125 -47.128906 31.046875 -47.078125 L 37.953125 -46.671875 C 50.628906 -46.671875 58.273438 -51.179688 60.890625 -60.203125 C 61.742188 -63.046875 62.171875 -66.296875 62.171875 -69.953125 C 62.171875 -77.078125 59.945312 -82.691406 55.5 -86.796875 C 51.0625 -90.898438 45.394531 -92.953125 38.5 -92.953125 C 37.863281 -92.953125 37.273438 -92.941406 36.734375 -92.921875 C 36.191406 -92.898438 35.648438 -92.875 35.109375 -92.84375 Z M 35.109375 -92.84375 "/></g></g></g><g fill="#ffffff" fill-opacity="1"><g transform="translate(1347.592987, 449.677051)"><g><path d="M 0.46875 -0.546875 L 0.46875 -2.4375 C 0.46875 -2.800781 0.648438 -2.984375 1.015625 -2.984375 L 2.5 -2.984375 C 4.394531 -3.109375 6.332031 -3.179688 8.3125 -3.203125 C 10.300781 -3.234375 12.109375 -3.472656 13.734375 -3.921875 C 17.429688 -5.003906 19.28125 -7.710938 19.28125 -12.046875 L 19.28125 -83.34375 C 19.28125 -87.8125 16.640625 -90.65625 11.359375 -91.875 C 9.867188 -92.1875 8.359375 -92.457031 6.828125 -92.6875 L 5.40625 -92.6875 C 5.050781 -92.6875 4.875 -92.863281 4.875 -93.21875 L 4.875 -94.84375 C 4.875 -95.207031 5.050781 -95.390625 5.40625 -95.390625 L 69.75 -95.390625 C 70.5625 -95.390625 71.144531 -95.238281 71.5 -94.9375 C 71.863281 -94.644531 72.09375 -94.003906 72.1875 -93.015625 L 73.40625 -73.40625 C 73.40625 -72.945312 73.066406 -72.71875 72.390625 -72.71875 C 71.710938 -72.71875 71.210938 -72.921875 70.890625 -73.328125 C 70.617188 -73.785156 70.269531 -75.429688 69.84375 -78.265625 C 69.414062 -81.109375 68.640625 -83.476562 67.515625 -85.375 C 66.390625 -87.269531 64.40625 -88.460938 61.5625 -88.953125 L 33.34375 -88.953125 C 32.757812 -88.953125 32.46875 -88.660156 32.46875 -88.078125 L 32.46875 -53.109375 C 32.46875 -52.648438 32.691406 -52.421875 33.140625 -52.421875 L 56.5625 -52.421875 C 62.601562 -52.421875 65.625 -55.941406 65.625 -62.984375 C 65.625 -63.335938 65.800781 -63.515625 66.15625 -63.515625 L 67.78125 -63.515625 C 68.144531 -63.515625 68.328125 -63.335938 68.328125 -62.984375 L 68.328125 -34.03125 C 68.328125 -33.664062 68.144531 -33.484375 67.78125 -33.484375 L 66.15625 -33.484375 C 65.800781 -33.484375 65.625 -33.664062 65.625 -34.03125 C 65.625 -40.707031 63.679688 -44.5625 59.796875 -45.59375 C 58.710938 -45.863281 57.566406 -46 56.359375 -46 L 33.140625 -46 C 32.691406 -46 32.46875 -45.773438 32.46875 -45.328125 L 32.46875 -12.375 C 32.46875 -9 34.023438 -7.082031 37.140625 -6.625 C 38.046875 -6.488281 38.992188 -6.421875 39.984375 -6.421875 L 62.515625 -6.421875 C 67.148438 -6.421875 70.753906 -8.472656 73.328125 -12.578125 C 75.179688 -15.515625 76.3125 -18.875 76.71875 -22.65625 C 76.851562 -23.925781 77.53125 -24.5625 78.75 -24.5625 C 79.289062 -24.5625 79.5625 -24.265625 79.5625 -23.671875 L 77.328125 -0.953125 C 77.054688 -0.316406 76.738281 0 76.375 0 L 1.015625 0 C 0.648438 0 0.46875 -0.179688 0.46875 -0.546875 Z M 0.46875 -0.546875 "/></g></g></g></svg>