<svg xmlns="http://www.w3.org/2000/svg" xmlns:xlink="http://www.w3.org/1999/xlink" width="1920" zoomAndPan="magnify" viewBox="0 0 1440 809.999993" height="1080" preserveAspectRatio="xMidYMid meet" version="1.0"><defs><g/><clipPath id="def479c1d4"><path d="M 660 128 L 1011 128 L 1011 604 L 660 604 Z M 660 128 " clip-rule="nonzero"/></clipPath></defs><g clip-path="url(#def479c1d4)"><g fill="#ffffff" fill-opacity="1"><g transform="translate(626.617991, 603.420131)"><g><path d="M 260.703125 -6.703125 L 77.734375 -449.6875 C 75.054688 -455.9375 68.914062 -459.953125 59.3125 -461.734375 C 49.707031 -463.523438 42.445312 -464.421875 37.53125 -464.421875 L 33.515625 -464.421875 L 33.515625 -474.484375 L 142.75 -474.484375 L 142.75 -464.421875 L 138.0625 -464.421875 C 134.476562 -464.421875 129.554688 -463.972656 123.296875 -463.078125 C 117.046875 -462.191406 111.910156 -460.742188 107.890625 -458.734375 C 103.867188 -456.722656 102.53125 -453.484375 103.875 -449.015625 L 274.09375 -38.203125 L 443.65625 -449.015625 C 445.4375 -453.484375 443.757812 -456.832031 438.625 -459.0625 C 433.488281 -461.300781 427.234375 -462.753906 419.859375 -463.421875 C 412.492188 -464.085938 406.351562 -464.421875 401.4375 -464.421875 L 394.0625 -464.421875 L 394.0625 -474.484375 L 503.96875 -474.484375 L 503.96875 -464.421875 L 501.953125 -464.421875 C 499.273438 -464.421875 494.472656 -464.085938 487.546875 -463.421875 C 480.617188 -462.753906 473.914062 -461.414062 467.4375 -459.40625 C 460.96875 -457.394531 456.613281 -453.929688 454.375 -449.015625 L 279.46875 -25.46875 L 268.734375 0 L 263.375 0 Z M 260.703125 -6.703125 "/></g></g></g></g><g fill="#ffffff" fill-opacity="1"><g transform="translate(503.224406, 626.393191)"><g><path d="M 210.625 -369.765625 C 191.363281 -369.410156 173.066406 -364.332031 155.734375 -354.53125 C 138.398438 -344.726562 123.082031 -331.070312 109.78125 -313.5625 C 96.125 -296.050781 85.703125 -276.09375 78.515625 -253.6875 C 71.335938 -231.28125 67.75 -207.644531 67.75 -182.78125 C 67.75 -158.269531 71.335938 -134.722656 78.515625 -112.140625 C 85.703125 -89.554688 96.125 -69.507812 109.78125 -52 C 123.082031 -34.488281 138.398438 -20.914062 155.734375 -11.28125 C 173.066406 -1.65625 191.1875 3.503906 210.09375 4.203125 L 211.140625 4.203125 C 212.546875 4.203125 213.597656 4.203125 214.296875 4.203125 C 214.648438 4.203125 215.175781 4.203125 215.875 4.203125 C 216.570312 4.203125 217.097656 4.203125 217.453125 4.203125 C 245.109375 3.148438 270.316406 -6.738281 293.078125 -25.46875 C 315.835938 -44.207031 333.171875 -69.15625 345.078125 -100.3125 C 345.429688 -101.019531 345.957031 -101.375 346.65625 -101.375 C 347.351562 -101.375 347.703125 -101.019531 347.703125 -100.3125 L 361.359375 -64.078125 C 361.710938 -63.722656 361.710938 -63.375 361.359375 -63.03125 C 343.847656 -41.320312 322.488281 -24.335938 297.28125 -12.078125 C 272.070312 0.171875 245.632812 6.472656 217.96875 6.828125 L 216.921875 6.828125 C 216.222656 6.828125 215.347656 6.828125 214.296875 6.828125 C 213.242188 6.828125 212.019531 6.828125 210.625 6.828125 C 185.757812 6.472656 161.859375 1.394531 138.921875 -8.40625 C 115.984375 -18.207031 95.9375 -32.035156 78.78125 -49.890625 C 61.28125 -67.753906 47.800781 -88.148438 38.34375 -111.078125 C 28.882812 -134.015625 24.15625 -157.914062 24.15625 -182.78125 C 24.15625 -207.644531 28.882812 -231.628906 38.34375 -254.734375 C 47.800781 -277.847656 61.28125 -298.332031 78.78125 -316.1875 C 95.9375 -333.695312 115.894531 -347.441406 138.65625 -357.421875 C 161.414062 -367.398438 185.226562 -372.566406 210.09375 -372.921875 L 211.671875 -372.921875 C 212.367188 -372.921875 213.242188 -372.921875 214.296875 -372.921875 C 214.992188 -372.921875 216.21875 -372.921875 217.96875 -372.921875 C 245.632812 -372.210938 271.984375 -365.816406 297.015625 -353.734375 C 322.054688 -341.660156 343.503906 -324.769531 361.359375 -303.0625 C 361.710938 -302.707031 361.710938 -302.179688 361.359375 -301.484375 L 347.703125 -265.25 C 347.703125 -264.894531 347.351562 -264.71875 346.65625 -264.71875 C 345.957031 -264.71875 345.429688 -264.894531 345.078125 -265.25 C 333.171875 -296.757812 315.835938 -321.878906 293.078125 -340.609375 C 270.316406 -359.347656 245.28125 -369.066406 217.96875 -369.765625 L 216.921875 -370.296875 C 216.222656 -370.296875 215.347656 -370.296875 214.296875 -370.296875 C 213.242188 -370.296875 212.019531 -370.117188 210.625 -369.765625 Z M 210.625 -369.765625 "/></g></g></g></svg>