<svg xmlns="http://www.w3.org/2000/svg" xmlns:xlink="http://www.w3.org/1999/xlink" width="1920" zoomAndPan="magnify" viewBox="0 0 1440 809.999993" height="1080" preserveAspectRatio="xMidYMid meet" version="1.0"><defs><g/></defs><g fill="#ffffff" fill-opacity="1"><g transform="translate(9.046153, 457.613671)"><g><path d="M 137.265625 -126.109375 C 137.265625 -125.617188 137.023438 -125.375 136.546875 -125.375 L 133.15625 -125.375 C 125.40625 -123.851562 119.703125 -117.507812 116.046875 -106.34375 C 115.066406 -103.414062 114.054688 -100.578125 113.015625 -97.828125 L 77.0625 -0.734375 C 76.507812 0.796875 75.835938 1.710938 75.046875 2.015625 C 74.253906 2.316406 73.15625 2.46875 71.75 2.46875 L 67.453125 2.46875 C 65.984375 2.46875 65.035156 1.796875 64.609375 0.453125 L 16.375 -116.40625 C 14.425781 -121.226562 9.609375 -124.1875 1.921875 -125.28125 C 1.492188 -125.34375 1.140625 -125.375 0.859375 -125.375 C 0.585938 -125.375 0.453125 -125.617188 0.453125 -126.109375 L 0.453125 -128.296875 C 0.453125 -128.785156 0.695312 -129.03125 1.1875 -129.03125 L 55.1875 -129.03125 C 55.675781 -129.03125 55.921875 -128.785156 55.921875 -128.296875 L 55.921875 -126.109375 C 55.921875 -125.617188 55.675781 -125.375 55.1875 -125.375 L 53.8125 -125.375 C 52.28125 -125.132812 50.507812 -124.890625 48.5 -124.640625 C 40.6875 -123.660156 36.78125 -120.550781 36.78125 -115.3125 C 36.78125 -113.664062 37.207031 -111.894531 38.0625 -110 L 72.75 -25.625 C 73.363281 -24.40625 74.003906 -24.4375 74.671875 -25.71875 L 106.515625 -111.921875 C 106.941406 -113.140625 107.15625 -114.585938 107.15625 -116.265625 C 107.15625 -117.941406 106.453125 -119.554688 105.046875 -121.109375 C 103.648438 -122.671875 102.234375 -123.570312 100.796875 -123.8125 C 99.367188 -124.0625 98.242188 -124.242188 97.421875 -124.359375 C 96.597656 -124.484375 95.359375 -124.679688 93.703125 -124.953125 C 92.054688 -125.234375 90.957031 -125.375 90.40625 -125.375 C 89.863281 -125.375 89.59375 -125.617188 89.59375 -126.109375 L 89.59375 -128.296875 C 89.59375 -128.785156 89.835938 -129.03125 90.328125 -129.03125 L 136.546875 -129.03125 C 137.023438 -129.03125 137.265625 -128.785156 137.265625 -128.296875 Z M 137.265625 -126.109375 "/></g></g></g><g fill="#ffffff" fill-opacity="1"><g transform="translate(160.619684, 457.613671)"><g><path d="M 23.0625 -114.390625 C 23.0625 -121.710938 18.851562 -125.375 10.4375 -125.375 C 9.09375 -125.375 8.421875 -125.617188 8.421875 -126.109375 L 8.421875 -128.296875 C 8.421875 -128.785156 8.664062 -129.03125 9.15625 -129.03125 L 55 -129.03125 C 55.488281 -129.03125 55.734375 -128.785156 55.734375 -128.296875 L 55.734375 -126.109375 C 55.734375 -125.617188 54.390625 -125.375 51.703125 -125.375 C 49.015625 -125.375 46.539062 -124.519531 44.28125 -122.8125 C 42.03125 -121.101562 40.90625 -117.59375 40.90625 -112.28125 L 40.90625 -14.640625 C 40.90625 -7.316406 45.144531 -3.65625 53.625 -3.65625 C 54.90625 -3.65625 55.546875 -3.410156 55.546875 -2.921875 L 55.546875 -0.734375 C 55.546875 -0.242188 55.300781 0 54.8125 0 L 8.96875 0 C 8.476562 0 8.234375 -0.242188 8.234375 -0.734375 L 8.234375 -2.921875 C 8.234375 -3.410156 9.578125 -3.65625 12.265625 -3.65625 C 14.953125 -3.65625 17.421875 -4.507812 19.671875 -6.21875 C 21.929688 -7.925781 23.0625 -11.4375 23.0625 -16.75 Z M 23.0625 -114.390625 "/></g></g></g><g fill="#ffffff" fill-opacity="1"><g transform="translate(238.447551, 457.613671)"><g><path d="M 77.234375 -127.9375 C 77.847656 -127.9375 78.15625 -127.265625 78.15625 -125.921875 L 80.53125 -106.4375 C 80.78125 -105.207031 80.90625 -104.425781 80.90625 -104.09375 C 80.90625 -103.757812 80.429688 -103.59375 79.484375 -103.59375 C 78.535156 -103.59375 77.9375 -103.710938 77.6875 -103.953125 C 77.445312 -104.203125 77.203125 -104.613281 76.953125 -105.1875 C 76.710938 -105.769531 76.425781 -106.425781 76.09375 -107.15625 C 75.757812 -107.894531 75.410156 -108.628906 75.046875 -109.359375 C 73.765625 -112.160156 71.75 -114.9375 69 -117.6875 C 62.289062 -124.15625 54.726562 -127.390625 46.3125 -127.390625 C 41.238281 -127.390625 36.445312 -125.738281 31.9375 -122.4375 C 27.425781 -119.144531 25.171875 -115.253906 25.171875 -110.765625 C 25.171875 -106.285156 26.007812 -102.398438 27.6875 -99.109375 C 29.363281 -95.816406 31.570312 -92.765625 34.3125 -89.953125 C 37.0625 -87.148438 40.203125 -84.46875 43.734375 -81.90625 C 47.273438 -79.34375 50.878906 -76.75 54.546875 -74.125 C 64.242188 -67.351562 71.132812 -61.554688 75.21875 -56.734375 C 81.625 -49.296875 85.101562 -40.9375 85.65625 -31.65625 C 85.65625 -21.289062 81.671875 -13.007812 73.703125 -6.8125 C 65.742188 -0.625 56.488281 2.46875 45.9375 2.46875 C 39.164062 2.46875 33.78125 1.78125 29.78125 0.40625 C 25.789062 -0.957031 23.03125 -1.945312 21.5 -2.5625 C 19.976562 -3.175781 18.863281 -3.484375 18.15625 -3.484375 C 17.457031 -3.484375 17.019531 -3.453125 16.84375 -3.390625 L 12.359375 -2.46875 C 11.566406 -2.46875 11.078125 -3.109375 10.890625 -4.390625 C 9.117188 -19.523438 8.234375 -27.5625 8.234375 -28.5 C 8.234375 -29.445312 8.304688 -30.085938 8.453125 -30.421875 C 8.609375 -30.765625 9.023438 -30.9375 9.703125 -30.9375 C 11.410156 -30.9375 12.96875 -28.492188 14.375 -23.609375 C 20.78125 -9.878906 31.425781 -3.015625 46.3125 -3.015625 C 53.144531 -3.015625 58.984375 -5.085938 63.828125 -9.234375 C 68.679688 -13.390625 71.109375 -18.789062 71.109375 -25.4375 C 71.109375 -36.050781 64.765625 -45.9375 52.078125 -55.09375 C 48.472656 -57.65625 43.285156 -61.222656 36.515625 -65.796875 C 29.742188 -70.367188 24.34375 -74.945312 20.3125 -79.53125 C 14.03125 -86.601562 10.890625 -94.484375 10.890625 -103.171875 C 10.890625 -111.867188 14.347656 -118.992188 21.265625 -124.546875 C 28.191406 -130.097656 36.140625 -132.875 45.109375 -132.875 C 49.753906 -132.875 54.863281 -132.082031 60.4375 -130.5 C 66.019531 -128.914062 69.910156 -127.847656 72.109375 -127.296875 Z M 77.234375 -127.9375 "/></g></g></g><g fill="#ffffff" fill-opacity="1"><g transform="translate(346.194586, 457.613671)"><g><path d="M 23.0625 -114.390625 C 23.0625 -121.710938 18.851562 -125.375 10.4375 -125.375 C 9.09375 -125.375 8.421875 -125.617188 8.421875 -126.109375 L 8.421875 -128.296875 C 8.421875 -128.785156 8.664062 -129.03125 9.15625 -129.03125 L 55 -129.03125 C 55.488281 -129.03125 55.734375 -128.785156 55.734375 -128.296875 L 55.734375 -126.109375 C 55.734375 -125.617188 54.390625 -125.375 51.703125 -125.375 C 49.015625 -125.375 46.539062 -124.519531 44.28125 -122.8125 C 42.03125 -121.101562 40.90625 -117.59375 40.90625 -112.28125 L 40.90625 -14.640625 C 40.90625 -7.316406 45.144531 -3.65625 53.625 -3.65625 C 54.90625 -3.65625 55.546875 -3.410156 55.546875 -2.921875 L 55.546875 -0.734375 C 55.546875 -0.242188 55.300781 0 54.8125 0 L 8.96875 0 C 8.476562 0 8.234375 -0.242188 8.234375 -0.734375 L 8.234375 -2.921875 C 8.234375 -3.410156 9.578125 -3.65625 12.265625 -3.65625 C 14.953125 -3.65625 17.421875 -4.507812 19.671875 -6.21875 C 21.929688 -7.925781 23.0625 -11.4375 23.0625 -16.75 Z M 23.0625 -114.390625 "/></g></g></g><g fill="#ffffff" fill-opacity="1"><g transform="translate(424.022474, 457.613671)"><g><path d="M 117.328125 -7.875 C 112.015625 -4.632812 106.21875 -2.097656 99.9375 -0.265625 C 93.65625 1.554688 88.070312 2.46875 83.1875 2.46875 C 73.175781 2.46875 63.628906 0.851562 54.546875 -2.375 C 42.097656 -6.894531 32.09375 -13.578125 24.53125 -22.421875 C 14.882812 -33.703125 10.0625 -48.007812 10.0625 -65.34375 C 10.0625 -77.851562 13.265625 -89.242188 19.671875 -99.515625 C 26.078125 -109.796875 34.9375 -117.925781 46.25 -123.90625 C 57.570312 -129.882812 69.742188 -132.875 82.765625 -132.875 C 95.796875 -132.875 107.46875 -129.972656 117.78125 -124.171875 C 128.09375 -118.378906 136.359375 -110.421875 142.578125 -100.296875 C 148.804688 -90.171875 151.921875 -79.203125 151.921875 -67.390625 C 151.921875 -55.585938 148.835938 -44.363281 142.671875 -33.71875 C 136.503906 -23.070312 128.054688 -14.457031 117.328125 -7.875 Z M 29.28125 -68.265625 C 29.28125 -58.140625 31.519531 -48.085938 36 -38.109375 C 40.488281 -28.140625 46.910156 -20.007812 55.265625 -13.71875 C 63.628906 -7.4375 73.300781 -4.296875 84.28125 -4.296875 C 99.90625 -4.296875 112.078125 -10.273438 120.796875 -22.234375 C 128.671875 -33.035156 132.609375 -46.820312 132.609375 -63.59375 C 132.609375 -80.375 127.785156 -94.835938 118.140625 -106.984375 C 113.441406 -112.898438 107.691406 -117.640625 100.890625 -121.203125 C 94.085938 -124.773438 87.222656 -126.5625 80.296875 -126.5625 C 73.378906 -126.5625 67.707031 -125.796875 63.28125 -124.265625 C 58.851562 -122.742188 54.835938 -120.65625 51.234375 -118 C 47.640625 -115.351562 44.46875 -112.195312 41.71875 -108.53125 C 38.976562 -104.875 36.691406 -100.910156 34.859375 -96.640625 C 31.140625 -87.859375 29.28125 -78.398438 29.28125 -68.265625 Z M 29.28125 -68.265625 "/></g></g></g><g fill="#ffffff" fill-opacity="1"><g transform="translate(599.84243, 457.613671)"><g><path d="M 6.21875 0 C 5.726562 0 5.484375 -0.242188 5.484375 -0.734375 L 5.484375 -2.921875 C 5.484375 -3.410156 5.789062 -3.65625 6.40625 -3.65625 L 8.515625 -3.65625 C 11.867188 -3.65625 14.15625 -3.960938 15.375 -4.578125 C 19.882812 -6.773438 22.140625 -12.816406 22.140625 -22.703125 L 22.140625 -117.78125 C 22.140625 -121.863281 18.175781 -124.300781 10.25 -125.09375 C 8.476562 -125.28125 7.238281 -125.375 6.53125 -125.375 C 5.832031 -125.375 5.484375 -125.617188 5.484375 -126.109375 L 5.484375 -128.296875 C 5.484375 -128.785156 5.726562 -129.03125 6.21875 -129.03125 L 39.71875 -129.03125 L 126.5625 -33.03125 C 126.863281 -32.726562 127.078125 -32.5 127.203125 -32.34375 C 127.328125 -32.195312 127.523438 -32.125 127.796875 -32.125 C 128.078125 -32.125 128.21875 -32.394531 128.21875 -32.9375 L 128.21875 -96 C 128.21875 -108.132812 127.207031 -116.0625 125.1875 -119.78125 C 123.175781 -123.507812 119.117188 -125.375 113.015625 -125.375 L 108.359375 -125.375 C 107.867188 -125.375 107.625 -125.617188 107.625 -126.109375 L 107.625 -128.296875 C 107.625 -128.785156 107.867188 -129.03125 108.359375 -129.03125 L 155.9375 -129.03125 C 156.425781 -129.03125 156.671875 -128.785156 156.671875 -128.296875 L 156.671875 -126.109375 C 156.671875 -125.617188 155.769531 -125.375 153.96875 -125.375 C 152.175781 -125.375 149.21875 -124.335938 145.09375 -122.265625 C 140.976562 -120.191406 138.921875 -117.628906 138.921875 -114.578125 L 138.921875 -2.65625 C 138.921875 -1.3125 138.738281 -0.351562 138.375 0.21875 C 138.007812 0.800781 137.140625 1.09375 135.765625 1.09375 C 134.390625 1.09375 133.363281 0.816406 132.6875 0.265625 C 132.019531 -0.273438 131.226562 -1.066406 130.3125 -2.109375 L 35.96875 -106.703125 C 35.351562 -107.316406 34.800781 -107.625 34.3125 -107.625 C 34.007812 -107.625 33.859375 -107.316406 33.859375 -106.703125 L 33.859375 -15.375 C 33.859375 -9.820312 38.25 -6.160156 47.03125 -4.390625 C 49.476562 -3.898438 51.34375 -3.65625 52.625 -3.65625 C 53.90625 -3.65625 54.546875 -3.410156 54.546875 -2.921875 L 54.546875 -0.734375 C 54.546875 -0.242188 54.300781 0 53.8125 0 Z M 6.21875 0 "/></g></g></g><g fill="#ffffff" fill-opacity="1"><g transform="translate(773.55794, 457.613671)"><g/></g></g><g fill="#ffffff" fill-opacity="1"><g transform="translate(837.752905, 457.613671)"><g><path d="M 123.09375 -3.484375 C 122.78125 -2.992188 122.03125 -2.882812 120.84375 -3.15625 C 119.65625 -3.425781 118.265625 -3.5625 116.671875 -3.5625 C 115.085938 -3.5625 112.847656 -3.238281 109.953125 -2.59375 C 107.054688 -1.957031 102.492188 -0.957031 96.265625 0.40625 C 90.046875 1.78125 84.375 2.46875 79.25 2.46875 C 67.65625 2.46875 56.410156 -0.257812 45.515625 -5.71875 C 34.628906 -11.175781 25.921875 -18.921875 19.390625 -28.953125 C 12.867188 -38.992188 9.609375 -50.632812 9.609375 -63.875 C 9.609375 -77.113281 12.875 -89.101562 19.40625 -99.84375 C 28.914062 -115.582031 43.25 -125.832031 62.40625 -130.59375 C 68.507812 -132.113281 74.613281 -132.875 80.71875 -132.875 C 89.070312 -132.875 98.984375 -131.472656 110.453125 -128.671875 C 113.929688 -127.816406 116.875 -126.929688 119.28125 -126.015625 C 121.695312 -125.097656 123.179688 -124.640625 123.734375 -124.640625 L 126.46875 -125.375 L 129.3125 -125.375 C 130.039062 -125.375 130.40625 -124.851562 130.40625 -123.8125 L 130.40625 -95.359375 C 130.40625 -94.742188 129.851562 -94.4375 128.75 -94.4375 C 127.65625 -94.4375 127.015625 -94.570312 126.828125 -94.84375 C 126.648438 -95.125 126.46875 -95.460938 126.28125 -95.859375 C 126.101562 -96.253906 125.90625 -96.664062 125.6875 -97.09375 C 125.476562 -97.519531 125.265625 -97.914062 125.046875 -98.28125 C 124.835938 -98.644531 124.703125 -98.921875 124.640625 -99.109375 C 115.492188 -117.472656 101.613281 -126.65625 83 -126.65625 C 66.226562 -126.65625 53.113281 -121.316406 43.65625 -110.640625 C 34.195312 -99.960938 29.46875 -85.820312 29.46875 -68.21875 C 29.46875 -50.625 34.664062 -35.507812 45.0625 -22.875 C 55.46875 -10.25 69.609375 -3.9375 87.484375 -3.9375 C 97.242188 -3.9375 106.132812 -6.832031 114.15625 -12.625 C 122.1875 -18.425781 128.488281 -25.535156 133.0625 -33.953125 C 133.1875 -34.316406 133.550781 -34.5 134.15625 -34.5 L 135.34375 -34.5 C 135.957031 -34.5 136.265625 -34.128906 136.265625 -33.390625 C 136.265625 -32.660156 136.082031 -31.960938 135.71875 -31.296875 Z M 123.09375 -3.484375 "/></g></g></g><g fill="#ffffff" fill-opacity="1"><g transform="translate(994.907663, 457.613671)"><g><path d="M 117.328125 -7.875 C 112.015625 -4.632812 106.21875 -2.097656 99.9375 -0.265625 C 93.65625 1.554688 88.070312 2.46875 83.1875 2.46875 C 73.175781 2.46875 63.628906 0.851562 54.546875 -2.375 C 42.097656 -6.894531 32.09375 -13.578125 24.53125 -22.421875 C 14.882812 -33.703125 10.0625 -48.007812 10.0625 -65.34375 C 10.0625 -77.851562 13.265625 -89.242188 19.671875 -99.515625 C 26.078125 -109.796875 34.9375 -117.925781 46.25 -123.90625 C 57.570312 -129.882812 69.742188 -132.875 82.765625 -132.875 C 95.796875 -132.875 107.46875 -129.972656 117.78125 -124.171875 C 128.09375 -118.378906 136.359375 -110.421875 142.578125 -100.296875 C 148.804688 -90.171875 151.921875 -79.203125 151.921875 -67.390625 C 151.921875 -55.585938 148.835938 -44.363281 142.671875 -33.71875 C 136.503906 -23.070312 128.054688 -14.457031 117.328125 -7.875 Z M 29.28125 -68.265625 C 29.28125 -58.140625 31.519531 -48.085938 36 -38.109375 C 40.488281 -28.140625 46.910156 -20.007812 55.265625 -13.71875 C 63.628906 -7.4375 73.300781 -4.296875 84.28125 -4.296875 C 99.90625 -4.296875 112.078125 -10.273438 120.796875 -22.234375 C 128.671875 -33.035156 132.609375 -46.820312 132.609375 -63.59375 C 132.609375 -80.375 127.785156 -94.835938 118.140625 -106.984375 C 113.441406 -112.898438 107.691406 -117.640625 100.890625 -121.203125 C 94.085938 -124.773438 87.222656 -126.5625 80.296875 -126.5625 C 73.378906 -126.5625 67.707031 -125.796875 63.28125 -124.265625 C 58.851562 -122.742188 54.835938 -120.65625 51.234375 -118 C 47.640625 -115.351562 44.46875 -112.195312 41.71875 -108.53125 C 38.976562 -104.875 36.691406 -100.910156 34.859375 -96.640625 C 31.140625 -87.859375 29.28125 -78.398438 29.28125 -68.265625 Z M 29.28125 -68.265625 "/></g></g></g><g fill="#ffffff" fill-opacity="1"><g transform="translate(1170.727577, 457.613671)"><g><path d="M 4.765625 0 C 4.273438 0 4.03125 -0.609375 4.03125 -1.828125 L 4.03125 -2.921875 C 4.03125 -3.410156 4.273438 -3.65625 4.765625 -3.65625 C 5.128906 -3.65625 5.707031 -3.71875 6.5 -3.84375 C 7.289062 -3.96875 8.113281 -4.085938 8.96875 -4.203125 C 9.820312 -4.328125 10.613281 -4.460938 11.34375 -4.609375 C 12.082031 -4.765625 12.601562 -4.875 12.90625 -4.9375 C 19.125 -6.34375 22.234375 -9.882812 22.234375 -15.5625 L 22.234375 -112.203125 C 22.234375 -117.441406 20.128906 -121.160156 15.921875 -123.359375 C 13.421875 -124.703125 10.738281 -125.375 7.875 -125.375 L 4.390625 -125.375 C 3.898438 -125.375 3.65625 -125.617188 3.65625 -126.109375 L 3.65625 -128.296875 C 3.65625 -128.785156 4.023438 -129.03125 4.765625 -129.03125 L 55 -130.40625 L 64.25 -130.40625 C 75.039062 -129.675781 84.082031 -125.753906 91.375 -118.640625 C 98.664062 -111.535156 102.3125 -102.78125 102.3125 -92.375 C 102.3125 -81.976562 97.976562 -73.882812 89.3125 -68.09375 C 86.632812 -66.320312 83.738281 -64.734375 80.625 -63.328125 L 108.359375 -18.03125 C 113.171875 -10.09375 119.632812 -4.507812 127.75 -1.28125 C 128.425781 -1.09375 128.765625 -0.664062 128.765625 0 C 128.765625 1.519531 127.753906 2.28125 125.734375 2.28125 C 112.015625 2.28125 101.097656 -2.929688 92.984375 -13.359375 C 91.210938 -15.679688 89.441406 -18.273438 87.671875 -21.140625 L 63.96875 -58.296875 L 42.1875 -59.296875 L 41.453125 -59.296875 C 40.535156 -59.296875 40.078125 -58.867188 40.078125 -58.015625 L 40.078125 -15.828125 C 40.078125 -12.472656 41.019531 -9.972656 42.90625 -8.328125 C 44.800781 -6.679688 48.070312 -5.550781 52.71875 -4.9375 C 53.9375 -4.757812 55.425781 -4.5 57.1875 -4.15625 C 58.957031 -3.820312 60.160156 -3.65625 60.796875 -3.65625 C 61.441406 -3.65625 61.765625 -3.410156 61.765625 -2.921875 L 61.765625 -0.734375 C 61.765625 -0.242188 61.523438 0 61.046875 0 Z M 47.484375 -125.609375 C 46.753906 -125.578125 45.976562 -125.546875 45.15625 -125.515625 C 44.332031 -125.484375 43.28125 -125.453125 42 -125.421875 C 40.71875 -125.390625 40.078125 -124.882812 40.078125 -123.90625 L 40.078125 -68.453125 L 40.265625 -65.703125 C 40.453125 -64.421875 41.03125 -63.75 42 -63.6875 L 51.34375 -63.140625 C 68.488281 -63.140625 78.828125 -69.242188 82.359375 -81.453125 C 83.523438 -85.296875 84.109375 -89.6875 84.109375 -94.625 C 84.109375 -104.257812 81.101562 -111.851562 75.09375 -117.40625 C 69.082031 -122.957031 61.410156 -125.734375 52.078125 -125.734375 C 51.222656 -125.734375 50.425781 -125.71875 49.6875 -125.6875 C 48.957031 -125.664062 48.222656 -125.640625 47.484375 -125.609375 Z M 47.484375 -125.609375 "/></g></g></g><g fill="#ffffff" fill-opacity="1"><g transform="translate(1314.432443, 457.613671)"><g><path d="M 0.640625 -0.734375 L 0.640625 -3.296875 C 0.640625 -3.785156 0.882812 -4.03125 1.375 -4.03125 L 3.390625 -4.03125 C 5.953125 -4.207031 8.570312 -4.3125 11.25 -4.34375 C 13.9375 -4.375 16.378906 -4.695312 18.578125 -5.3125 C 23.578125 -6.769531 26.078125 -10.429688 26.078125 -16.296875 L 26.078125 -112.75 C 26.078125 -118.789062 22.507812 -122.632812 15.375 -124.28125 C 13.363281 -124.707031 11.320312 -125.070312 9.25 -125.375 L 7.328125 -125.375 C 6.835938 -125.375 6.59375 -125.617188 6.59375 -126.109375 L 6.59375 -128.296875 C 6.59375 -128.785156 6.835938 -129.03125 7.328125 -129.03125 L 94.34375 -129.03125 C 95.445312 -129.03125 96.242188 -128.832031 96.734375 -128.4375 C 97.222656 -128.039062 97.523438 -127.171875 97.640625 -125.828125 L 99.296875 -99.296875 C 99.296875 -98.679688 98.835938 -98.375 97.921875 -98.375 C 97.003906 -98.375 96.332031 -98.648438 95.90625 -99.203125 C 95.539062 -99.804688 95.066406 -102.03125 94.484375 -105.875 C 93.910156 -109.71875 92.859375 -112.921875 91.328125 -115.484375 C 89.804688 -118.046875 87.125 -119.664062 83.28125 -120.34375 L 45.109375 -120.34375 C 44.316406 -120.34375 43.921875 -119.945312 43.921875 -119.15625 L 43.921875 -71.84375 C 43.921875 -71.226562 44.226562 -70.921875 44.84375 -70.921875 L 76.5 -70.921875 C 84.675781 -70.921875 88.765625 -75.679688 88.765625 -85.203125 C 88.765625 -85.691406 89.007812 -85.9375 89.5 -85.9375 L 91.703125 -85.9375 C 92.191406 -85.9375 92.4375 -85.691406 92.4375 -85.203125 L 92.4375 -46.03125 C 92.4375 -45.539062 92.191406 -45.296875 91.703125 -45.296875 L 89.5 -45.296875 C 89.007812 -45.296875 88.765625 -45.539062 88.765625 -46.03125 C 88.765625 -55.0625 86.144531 -60.28125 80.90625 -61.6875 C 79.4375 -62.050781 77.878906 -62.234375 76.234375 -62.234375 L 44.84375 -62.234375 C 44.226562 -62.234375 43.921875 -61.925781 43.921875 -61.3125 L 43.921875 -16.75 C 43.921875 -12.175781 46.023438 -9.582031 50.234375 -8.96875 C 51.460938 -8.78125 52.742188 -8.6875 54.078125 -8.6875 L 84.5625 -8.6875 C 90.84375 -8.6875 95.722656 -11.460938 99.203125 -17.015625 C 101.703125 -20.984375 103.226562 -25.53125 103.78125 -30.65625 C 103.957031 -32.363281 104.867188 -33.21875 106.515625 -33.21875 C 107.253906 -33.21875 107.625 -32.820312 107.625 -32.03125 L 104.59375 -1.28125 C 104.226562 -0.425781 103.800781 0 103.3125 0 L 1.375 0 C 0.882812 0 0.640625 -0.242188 0.640625 -0.734375 Z M 0.640625 -0.734375 "/></g></g></g></svg>