<svg xmlns="http://www.w3.org/2000/svg" xmlns:xlink="http://www.w3.org/1999/xlink" width="1920" zoomAndPan="magnify" viewBox="0 0 1440 809.999993" height="1080" preserveAspectRatio="xMidYMid meet" version="1.0"><defs><g/></defs><g fill="#ffffff" fill-opacity="1"><g transform="translate(108.134034, 513.182869)"><g><path d="M 142.84375 -3.671875 L 42.59375 -246.390625 C 41.125 -249.816406 37.757812 -252.019531 32.5 -253 C 27.238281 -253.976562 23.257812 -254.46875 20.5625 -254.46875 L 18.359375 -254.46875 L 18.359375 -259.984375 L 78.21875 -259.984375 L 78.21875 -254.46875 L 75.640625 -254.46875 C 73.679688 -254.46875 70.988281 -254.222656 67.5625 -253.734375 C 64.132812 -253.242188 61.316406 -252.445312 59.109375 -251.34375 C 56.910156 -250.25 56.179688 -248.476562 56.921875 -246.03125 L 150.1875 -20.9375 L 243.09375 -246.03125 C 244.070312 -248.476562 243.148438 -250.3125 240.328125 -251.53125 C 237.515625 -252.757812 234.085938 -253.554688 230.046875 -253.921875 C 226.015625 -254.285156 222.648438 -254.46875 219.953125 -254.46875 L 215.921875 -254.46875 L 215.921875 -259.984375 L 276.140625 -259.984375 L 276.140625 -254.46875 L 275.03125 -254.46875 C 273.5625 -254.46875 270.929688 -254.285156 267.140625 -253.921875 C 263.347656 -253.554688 259.675781 -252.820312 256.125 -251.71875 C 252.570312 -250.613281 250.1875 -248.71875 248.96875 -246.03125 L 153.125 -13.953125 L 147.25 0 L 144.3125 0 Z M 142.84375 -3.671875 "/></g></g></g><g fill="#ffffff" fill-opacity="1"><g transform="translate(40.524119, 525.770276)"><g><path d="M 115.40625 -202.59375 C 104.851562 -202.40625 94.828125 -199.625 85.328125 -194.25 C 75.828125 -188.875 67.429688 -181.394531 60.140625 -171.8125 C 52.660156 -162.21875 46.953125 -151.28125 43.015625 -139 C 39.085938 -126.71875 37.125 -113.765625 37.125 -100.140625 C 37.125 -86.710938 39.085938 -73.8125 43.015625 -61.4375 C 46.953125 -49.0625 52.660156 -38.078125 60.140625 -28.484375 C 67.429688 -18.890625 75.828125 -11.453125 85.328125 -6.171875 C 94.828125 -0.898438 104.753906 1.921875 115.109375 2.296875 L 115.6875 2.296875 C 116.457031 2.296875 117.035156 2.296875 117.421875 2.296875 C 117.609375 2.296875 117.894531 2.296875 118.28125 2.296875 C 118.664062 2.296875 118.953125 2.296875 119.140625 2.296875 C 134.296875 1.722656 148.109375 -3.691406 160.578125 -13.953125 C 173.046875 -24.222656 182.546875 -37.894531 189.078125 -54.96875 C 189.265625 -55.351562 189.550781 -55.546875 189.9375 -55.546875 C 190.320312 -55.546875 190.515625 -55.351562 190.515625 -54.96875 L 198 -35.109375 C 198.1875 -34.921875 198.1875 -34.726562 198 -34.53125 C 188.40625 -22.632812 176.695312 -13.328125 162.875 -6.609375 C 149.0625 0.0976562 134.578125 3.546875 119.421875 3.734375 L 118.859375 3.734375 C 118.472656 3.734375 117.992188 3.734375 117.421875 3.734375 C 116.835938 3.734375 116.164062 3.734375 115.40625 3.734375 C 101.78125 3.546875 88.679688 0.769531 76.109375 -4.59375 C 63.546875 -9.96875 52.566406 -17.550781 43.171875 -27.34375 C 33.578125 -37.125 26.1875 -48.296875 21 -60.859375 C 15.820312 -73.429688 13.234375 -86.523438 13.234375 -100.140625 C 13.234375 -113.765625 15.820312 -126.90625 21 -139.5625 C 26.1875 -152.226562 33.578125 -163.457031 43.171875 -173.25 C 52.566406 -182.84375 63.5 -190.367188 75.96875 -195.828125 C 88.445312 -201.296875 101.492188 -204.128906 115.109375 -204.328125 L 115.96875 -204.328125 C 116.351562 -204.328125 116.835938 -204.328125 117.421875 -204.328125 C 117.796875 -204.328125 118.460938 -204.328125 119.421875 -204.328125 C 134.578125 -203.941406 149.015625 -200.4375 162.734375 -193.8125 C 176.453125 -187.195312 188.207031 -177.941406 198 -166.046875 C 198.1875 -165.859375 198.1875 -165.570312 198 -165.1875 L 190.515625 -145.328125 C 190.515625 -145.140625 190.320312 -145.046875 189.9375 -145.046875 C 189.550781 -145.046875 189.265625 -145.140625 189.078125 -145.328125 C 182.546875 -162.597656 173.046875 -176.363281 160.578125 -186.625 C 148.109375 -196.882812 134.390625 -202.207031 119.421875 -202.59375 L 118.859375 -202.890625 C 118.472656 -202.890625 117.992188 -202.890625 117.421875 -202.890625 C 116.835938 -202.890625 116.164062 -202.789062 115.40625 -202.59375 Z M 115.40625 -202.59375 "/></g></g></g><g fill="#ffffff" fill-opacity="1"><g transform="translate(323.149551, 450.348029)"><g><path d="M 20.140625 -99.921875 C 20.140625 -106.316406 16.460938 -109.515625 9.109375 -109.515625 C 7.941406 -109.515625 7.359375 -109.726562 7.359375 -110.15625 L 7.359375 -112.078125 C 7.359375 -112.503906 7.570312 -112.71875 8 -112.71875 L 48.046875 -112.71875 C 48.472656 -112.71875 48.6875 -112.503906 48.6875 -112.078125 L 48.6875 -110.15625 C 48.6875 -109.726562 47.515625 -109.515625 45.171875 -109.515625 C 42.828125 -109.515625 40.664062 -108.769531 38.6875 -107.28125 C 36.71875 -105.789062 35.734375 -102.726562 35.734375 -98.09375 L 35.734375 -12.796875 C 35.734375 -6.398438 39.4375 -3.203125 46.84375 -3.203125 C 47.96875 -3.203125 48.53125 -2.988281 48.53125 -2.5625 L 48.53125 -0.640625 C 48.53125 -0.210938 48.316406 0 47.890625 0 L 7.828125 0 C 7.398438 0 7.1875 -0.210938 7.1875 -0.640625 L 7.1875 -2.5625 C 7.1875 -2.988281 8.359375 -3.203125 10.703125 -3.203125 C 13.054688 -3.203125 15.21875 -3.945312 17.1875 -5.4375 C 19.15625 -6.925781 20.140625 -9.988281 20.140625 -14.625 Z M 20.140625 -99.921875 "/></g></g></g><g fill="#ffffff" fill-opacity="1"><g transform="translate(391.133891, 450.348029)"><g><path d="M 67.46875 -111.75 C 68 -111.75 68.265625 -111.164062 68.265625 -110 L 70.34375 -92.96875 C 70.5625 -91.90625 70.671875 -91.226562 70.671875 -90.9375 C 70.671875 -90.644531 70.253906 -90.5 69.421875 -90.5 C 68.597656 -90.5 68.078125 -90.601562 67.859375 -90.8125 C 67.648438 -91.019531 67.4375 -91.378906 67.21875 -91.890625 C 67.007812 -92.398438 66.757812 -92.972656 66.46875 -93.609375 C 66.175781 -94.242188 65.867188 -94.882812 65.546875 -95.53125 C 64.429688 -97.976562 62.675781 -100.398438 60.28125 -102.796875 C 54.414062 -108.453125 47.804688 -111.28125 40.453125 -111.28125 C 36.023438 -111.28125 31.835938 -109.835938 27.890625 -106.953125 C 23.953125 -104.078125 21.984375 -100.679688 21.984375 -96.765625 C 21.984375 -92.847656 22.710938 -89.453125 24.171875 -86.578125 C 25.640625 -83.703125 27.570312 -81.035156 29.96875 -78.578125 C 32.375 -76.128906 35.117188 -73.785156 38.203125 -71.546875 C 41.296875 -69.304688 44.441406 -67.039062 47.640625 -64.75 C 56.117188 -58.832031 62.144531 -53.769531 65.71875 -49.5625 C 71.3125 -43.0625 74.347656 -35.757812 74.828125 -27.65625 C 74.828125 -18.59375 71.347656 -11.359375 64.390625 -5.953125 C 57.429688 -0.546875 49.34375 2.15625 40.125 2.15625 C 34.207031 2.15625 29.503906 1.554688 26.015625 0.359375 C 22.523438 -0.835938 20.113281 -1.703125 18.78125 -2.234375 C 17.445312 -2.765625 16.472656 -3.03125 15.859375 -3.03125 C 15.253906 -3.03125 14.867188 -3.003906 14.703125 -2.953125 L 10.796875 -2.15625 C 10.097656 -2.15625 9.671875 -2.71875 9.515625 -3.84375 C 7.960938 -17.050781 7.1875 -24.066406 7.1875 -24.890625 C 7.1875 -25.722656 7.253906 -26.285156 7.390625 -26.578125 C 7.523438 -26.867188 7.882812 -27.015625 8.46875 -27.015625 C 9.96875 -27.015625 11.328125 -24.882812 12.546875 -20.625 C 18.140625 -8.632812 27.441406 -2.640625 40.453125 -2.640625 C 46.421875 -2.640625 51.519531 -4.453125 55.75 -8.078125 C 59.988281 -11.703125 62.109375 -16.414062 62.109375 -22.21875 C 62.109375 -31.5 56.566406 -40.132812 45.484375 -48.125 C 42.335938 -50.363281 37.804688 -53.476562 31.890625 -57.46875 C 25.972656 -61.46875 21.257812 -65.46875 17.75 -69.46875 C 12.257812 -75.644531 9.515625 -82.53125 9.515625 -90.125 C 9.515625 -97.726562 12.535156 -103.953125 18.578125 -108.796875 C 24.628906 -113.648438 31.570312 -116.078125 39.40625 -116.078125 C 43.457031 -116.078125 47.921875 -115.382812 52.796875 -114 C 57.671875 -112.613281 61.070312 -111.679688 63 -111.203125 Z M 67.46875 -111.75 "/></g></g></g><g fill="#ffffff" fill-opacity="1"><g transform="translate(485.253253, 450.348029)"><g><path d="M 20.140625 -99.921875 C 20.140625 -106.316406 16.460938 -109.515625 9.109375 -109.515625 C 7.941406 -109.515625 7.359375 -109.726562 7.359375 -110.15625 L 7.359375 -112.078125 C 7.359375 -112.503906 7.570312 -112.71875 8 -112.71875 L 48.046875 -112.71875 C 48.472656 -112.71875 48.6875 -112.503906 48.6875 -112.078125 L 48.6875 -110.15625 C 48.6875 -109.726562 47.515625 -109.515625 45.171875 -109.515625 C 42.828125 -109.515625 40.664062 -108.769531 38.6875 -107.28125 C 36.71875 -105.789062 35.734375 -102.726562 35.734375 -98.09375 L 35.734375 -12.796875 C 35.734375 -6.398438 39.4375 -3.203125 46.84375 -3.203125 C 47.96875 -3.203125 48.53125 -2.988281 48.53125 -2.5625 L 48.53125 -0.640625 C 48.53125 -0.210938 48.316406 0 47.890625 0 L 7.828125 0 C 7.398438 0 7.1875 -0.210938 7.1875 -0.640625 L 7.1875 -2.5625 C 7.1875 -2.988281 8.359375 -3.203125 10.703125 -3.203125 C 13.054688 -3.203125 15.21875 -3.945312 17.1875 -5.4375 C 19.15625 -6.925781 20.140625 -9.988281 20.140625 -14.625 Z M 20.140625 -99.921875 "/></g></g></g><g fill="#ffffff" fill-opacity="1"><g transform="translate(553.237589, 450.348029)"><g><path d="M 102.484375 -6.875 C 97.847656 -4.050781 92.785156 -1.835938 87.296875 -0.234375 C 81.804688 1.359375 76.929688 2.15625 72.671875 2.15625 C 63.929688 2.15625 55.585938 0.742188 47.640625 -2.078125 C 36.773438 -6.023438 28.035156 -11.859375 21.421875 -19.578125 C 13.003906 -29.441406 8.796875 -41.941406 8.796875 -57.078125 C 8.796875 -68.003906 11.59375 -77.957031 17.1875 -86.9375 C 22.78125 -95.914062 30.519531 -103.015625 40.40625 -108.234375 C 50.289062 -113.460938 60.921875 -116.078125 72.296875 -116.078125 C 83.679688 -116.078125 93.875 -113.546875 102.875 -108.484375 C 111.882812 -103.421875 119.109375 -96.460938 124.546875 -87.609375 C 129.984375 -78.765625 132.703125 -69.1875 132.703125 -58.875 C 132.703125 -48.5625 130.007812 -38.753906 124.625 -29.453125 C 119.238281 -20.160156 111.859375 -12.632812 102.484375 -6.875 Z M 25.578125 -59.625 C 25.578125 -50.78125 27.535156 -42 31.453125 -33.28125 C 35.367188 -24.570312 40.976562 -17.472656 48.28125 -11.984375 C 55.582031 -6.492188 64.03125 -3.75 73.625 -3.75 C 87.269531 -3.75 97.898438 -8.972656 105.515625 -19.421875 C 112.390625 -28.859375 115.828125 -40.90625 115.828125 -55.5625 C 115.828125 -70.21875 111.617188 -82.847656 103.203125 -93.453125 C 99.097656 -98.617188 94.070312 -102.757812 88.125 -105.875 C 82.1875 -109 76.191406 -110.5625 70.140625 -110.5625 C 64.097656 -110.5625 59.144531 -109.894531 55.28125 -108.5625 C 51.414062 -107.226562 47.910156 -105.398438 44.765625 -103.078125 C 41.617188 -100.765625 38.847656 -98.007812 36.453125 -94.8125 C 34.054688 -91.613281 32.054688 -88.148438 30.453125 -84.421875 C 27.203125 -76.742188 25.578125 -68.476562 25.578125 -59.625 Z M 25.578125 -59.625 "/></g></g></g><g fill="#ffffff" fill-opacity="1"><g transform="translate(706.820128, 450.348029)"><g><path d="M 5.4375 0 C 5.007812 0 4.796875 -0.210938 4.796875 -0.640625 L 4.796875 -2.5625 C 4.796875 -2.988281 5.0625 -3.203125 5.59375 -3.203125 L 7.4375 -3.203125 C 10.363281 -3.203125 12.363281 -3.46875 13.4375 -4 C 17.375 -5.914062 19.34375 -11.191406 19.34375 -19.828125 L 19.34375 -102.890625 C 19.34375 -106.453125 15.878906 -108.582031 8.953125 -109.28125 C 7.410156 -109.4375 6.332031 -109.515625 5.71875 -109.515625 C 5.101562 -109.515625 4.796875 -109.726562 4.796875 -110.15625 L 4.796875 -112.078125 C 4.796875 -112.503906 5.007812 -112.71875 5.4375 -112.71875 L 34.6875 -112.71875 L 110.5625 -28.859375 C 110.820312 -28.585938 111.003906 -28.382812 111.109375 -28.25 C 111.222656 -28.125 111.398438 -28.0625 111.640625 -28.0625 C 111.878906 -28.0625 112 -28.300781 112 -28.78125 L 112 -83.859375 C 112 -94.460938 111.117188 -101.390625 109.359375 -104.640625 C 107.597656 -107.890625 104.054688 -109.515625 98.734375 -109.515625 L 94.65625 -109.515625 C 94.226562 -109.515625 94.015625 -109.726562 94.015625 -110.15625 L 94.015625 -112.078125 C 94.015625 -112.503906 94.226562 -112.71875 94.65625 -112.71875 L 136.21875 -112.71875 C 136.644531 -112.71875 136.859375 -112.503906 136.859375 -112.078125 L 136.859375 -110.15625 C 136.859375 -109.726562 136.070312 -109.515625 134.5 -109.515625 C 132.925781 -109.515625 130.335938 -108.609375 126.734375 -106.796875 C 123.140625 -104.984375 121.34375 -102.742188 121.34375 -100.078125 L 121.34375 -2.3125 C 121.34375 -1.144531 121.179688 -0.3125 120.859375 0.1875 C 120.546875 0.695312 119.789062 0.953125 118.59375 0.953125 C 117.394531 0.953125 116.5 0.710938 115.90625 0.234375 C 115.320312 -0.242188 114.628906 -0.9375 113.828125 -1.84375 L 31.421875 -93.21875 C 30.890625 -93.75 30.410156 -94.015625 29.984375 -94.015625 C 29.710938 -94.015625 29.578125 -93.75 29.578125 -93.21875 L 29.578125 -13.4375 C 29.578125 -8.582031 33.414062 -5.382812 41.09375 -3.84375 C 43.21875 -3.414062 44.835938 -3.203125 45.953125 -3.203125 C 47.078125 -3.203125 47.640625 -2.988281 47.640625 -2.5625 L 47.640625 -0.640625 C 47.640625 -0.210938 47.425781 0 47 0 Z M 5.4375 0 "/></g></g></g><g fill="#ffffff" fill-opacity="1"><g transform="translate(858.564407, 450.348029)"><g/></g></g><g fill="#ffffff" fill-opacity="1"><g transform="translate(914.640106, 450.348029)"><g><path d="M 107.515625 -3.03125 C 107.253906 -2.601562 106.601562 -2.507812 105.5625 -2.75 C 104.519531 -3 103.304688 -3.125 101.921875 -3.125 C 100.535156 -3.125 98.578125 -2.84375 96.046875 -2.28125 C 93.515625 -1.71875 89.53125 -0.835938 84.09375 0.359375 C 78.65625 1.554688 73.703125 2.15625 69.234375 2.15625 C 59.109375 2.15625 49.285156 -0.226562 39.765625 -5 C 30.253906 -9.769531 22.644531 -16.535156 16.9375 -25.296875 C 11.238281 -34.066406 8.390625 -44.234375 8.390625 -55.796875 C 8.390625 -67.359375 11.242188 -77.832031 16.953125 -87.21875 C 25.265625 -100.96875 37.785156 -109.921875 54.515625 -114.078125 C 59.847656 -115.410156 65.175781 -116.078125 70.5 -116.078125 C 77.800781 -116.078125 86.460938 -114.847656 96.484375 -112.390625 C 99.523438 -111.648438 102.097656 -110.878906 104.203125 -110.078125 C 106.304688 -109.273438 107.597656 -108.875 108.078125 -108.875 L 110.484375 -109.515625 L 112.953125 -109.515625 C 113.597656 -109.515625 113.921875 -109.0625 113.921875 -108.15625 L 113.921875 -83.296875 C 113.921875 -82.765625 113.4375 -82.5 112.46875 -82.5 C 111.507812 -82.5 110.953125 -82.617188 110.796875 -82.859375 C 110.640625 -83.097656 110.476562 -83.390625 110.3125 -83.734375 C 110.15625 -84.078125 109.984375 -84.4375 109.796875 -84.8125 C 109.609375 -85.1875 109.421875 -85.535156 109.234375 -85.859375 C 109.046875 -86.179688 108.925781 -86.421875 108.875 -86.578125 C 100.882812 -102.617188 88.757812 -110.640625 72.5 -110.640625 C 57.84375 -110.640625 46.382812 -105.972656 38.125 -96.640625 C 29.863281 -87.316406 25.734375 -74.96875 25.734375 -59.59375 C 25.734375 -44.21875 30.273438 -31.015625 39.359375 -19.984375 C 48.453125 -8.953125 60.804688 -3.4375 76.421875 -3.4375 C 84.953125 -3.4375 92.71875 -5.96875 99.71875 -11.03125 C 106.726562 -16.09375 112.234375 -22.300781 116.234375 -29.65625 C 116.335938 -29.976562 116.65625 -30.140625 117.1875 -30.140625 L 118.234375 -30.140625 C 118.765625 -30.140625 119.03125 -29.816406 119.03125 -29.171875 C 119.03125 -28.535156 118.867188 -27.925781 118.546875 -27.34375 Z M 107.515625 -3.03125 "/></g></g></g><g fill="#ffffff" fill-opacity="1"><g transform="translate(1051.918206, 450.348029)"><g><path d="M 102.484375 -6.875 C 97.847656 -4.050781 92.785156 -1.835938 87.296875 -0.234375 C 81.804688 1.359375 76.929688 2.15625 72.671875 2.15625 C 63.929688 2.15625 55.585938 0.742188 47.640625 -2.078125 C 36.773438 -6.023438 28.035156 -11.859375 21.421875 -19.578125 C 13.003906 -29.441406 8.796875 -41.941406 8.796875 -57.078125 C 8.796875 -68.003906 11.59375 -77.957031 17.1875 -86.9375 C 22.78125 -95.914062 30.519531 -103.015625 40.40625 -108.234375 C 50.289062 -113.460938 60.921875 -116.078125 72.296875 -116.078125 C 83.679688 -116.078125 93.875 -113.546875 102.875 -108.484375 C 111.882812 -103.421875 119.109375 -96.460938 124.546875 -87.609375 C 129.984375 -78.765625 132.703125 -69.1875 132.703125 -58.875 C 132.703125 -48.5625 130.007812 -38.753906 124.625 -29.453125 C 119.238281 -20.160156 111.859375 -12.632812 102.484375 -6.875 Z M 25.578125 -59.625 C 25.578125 -50.78125 27.535156 -42 31.453125 -33.28125 C 35.367188 -24.570312 40.976562 -17.472656 48.28125 -11.984375 C 55.582031 -6.492188 64.03125 -3.75 73.625 -3.75 C 87.269531 -3.75 97.898438 -8.972656 105.515625 -19.421875 C 112.390625 -28.859375 115.828125 -40.90625 115.828125 -55.5625 C 115.828125 -70.21875 111.617188 -82.847656 103.203125 -93.453125 C 99.097656 -98.617188 94.070312 -102.757812 88.125 -105.875 C 82.1875 -109 76.191406 -110.5625 70.140625 -110.5625 C 64.097656 -110.5625 59.144531 -109.894531 55.28125 -108.5625 C 51.414062 -107.226562 47.910156 -105.398438 44.765625 -103.078125 C 41.617188 -100.765625 38.847656 -98.007812 36.453125 -94.8125 C 34.054688 -91.613281 32.054688 -88.148438 30.453125 -84.421875 C 27.203125 -76.742188 25.578125 -68.476562 25.578125 -59.625 Z M 25.578125 -59.625 "/></g></g></g><g fill="#ffffff" fill-opacity="1"><g transform="translate(1205.500727, 450.348029)"><g><path d="M 4.15625 0 C 3.726562 0 3.515625 -0.53125 3.515625 -1.59375 L 3.515625 -2.5625 C 3.515625 -2.988281 3.726562 -3.203125 4.15625 -3.203125 C 4.476562 -3.203125 4.984375 -3.253906 5.671875 -3.359375 C 6.367188 -3.460938 7.085938 -3.566406 7.828125 -3.671875 C 8.578125 -3.785156 9.269531 -3.90625 9.90625 -4.03125 C 10.550781 -4.164062 11.003906 -4.257812 11.265625 -4.3125 C 16.703125 -5.539062 19.421875 -8.632812 19.421875 -13.59375 L 19.421875 -98 C 19.421875 -102.582031 17.582031 -105.835938 13.90625 -107.765625 C 11.71875 -108.929688 9.375 -109.515625 6.875 -109.515625 L 3.84375 -109.515625 C 3.414062 -109.515625 3.203125 -109.726562 3.203125 -110.15625 L 3.203125 -112.078125 C 3.203125 -112.503906 3.519531 -112.71875 4.15625 -112.71875 L 48.046875 -113.921875 L 56.125 -113.921875 C 65.550781 -113.273438 73.445312 -109.847656 79.8125 -103.640625 C 86.1875 -97.429688 89.375 -89.785156 89.375 -80.703125 C 89.375 -71.617188 85.585938 -64.539062 78.015625 -59.46875 C 75.671875 -57.925781 73.140625 -56.539062 70.421875 -55.3125 L 94.65625 -15.75 C 98.863281 -8.820312 104.507812 -3.945312 111.59375 -1.125 C 112.1875 -0.957031 112.484375 -0.582031 112.484375 0 C 112.484375 1.332031 111.601562 2 109.84375 2 C 97.851562 2 88.3125 -2.554688 81.21875 -11.671875 C 79.675781 -13.691406 78.128906 -15.957031 76.578125 -18.46875 L 55.875 -50.921875 L 36.859375 -51.796875 L 36.21875 -51.796875 C 35.414062 -51.796875 35.015625 -51.425781 35.015625 -50.6875 L 35.015625 -13.828125 C 35.015625 -10.898438 35.835938 -8.710938 37.484375 -7.265625 C 39.140625 -5.828125 41.992188 -4.84375 46.046875 -4.3125 C 47.109375 -4.15625 48.410156 -3.929688 49.953125 -3.640625 C 51.503906 -3.347656 52.554688 -3.203125 53.109375 -3.203125 C 53.671875 -3.203125 53.953125 -2.988281 53.953125 -2.5625 L 53.953125 -0.640625 C 53.953125 -0.210938 53.742188 0 53.328125 0 Z M 41.484375 -109.71875 C 40.847656 -109.6875 40.171875 -109.65625 39.453125 -109.625 C 38.734375 -109.601562 37.8125 -109.578125 36.6875 -109.546875 C 35.570312 -109.523438 35.015625 -109.085938 35.015625 -108.234375 L 35.015625 -59.796875 L 35.171875 -57.390625 C 35.328125 -56.273438 35.832031 -55.691406 36.6875 -55.640625 L 44.84375 -55.15625 C 59.820312 -55.15625 68.859375 -60.484375 71.953125 -71.140625 C 72.960938 -74.503906 73.46875 -78.34375 73.46875 -82.65625 C 73.46875 -91.082031 70.84375 -97.71875 65.59375 -102.5625 C 60.34375 -107.414062 53.640625 -109.84375 45.484375 -109.84375 C 44.734375 -109.84375 44.039062 -109.828125 43.40625 -109.796875 C 42.769531 -109.773438 42.128906 -109.75 41.484375 -109.71875 Z M 41.484375 -109.71875 "/></g></g></g><g fill="#ffffff" fill-opacity="1"><g transform="translate(1331.030056, 450.348029)"><g><path d="M 0.5625 -0.640625 L 0.5625 -2.875 C 0.5625 -3.300781 0.773438 -3.515625 1.203125 -3.515625 L 2.953125 -3.515625 C 5.191406 -3.671875 7.484375 -3.765625 9.828125 -3.796875 C 12.171875 -3.828125 14.304688 -4.109375 16.234375 -4.640625 C 20.597656 -5.921875 22.78125 -9.117188 22.78125 -14.234375 L 22.78125 -98.484375 C 22.78125 -103.765625 19.664062 -107.125 13.4375 -108.5625 C 11.675781 -108.9375 9.890625 -109.253906 8.078125 -109.515625 L 6.390625 -109.515625 C 5.960938 -109.515625 5.75 -109.726562 5.75 -110.15625 L 5.75 -112.078125 C 5.75 -112.503906 5.960938 -112.71875 6.390625 -112.71875 L 82.421875 -112.71875 C 83.378906 -112.71875 84.070312 -112.539062 84.5 -112.1875 C 84.925781 -111.84375 85.191406 -111.085938 85.296875 -109.921875 L 86.734375 -86.734375 C 86.734375 -86.203125 86.332031 -85.9375 85.53125 -85.9375 C 84.738281 -85.9375 84.15625 -86.175781 83.78125 -86.65625 C 83.457031 -87.1875 83.039062 -89.128906 82.53125 -92.484375 C 82.03125 -95.847656 81.113281 -98.648438 79.78125 -100.890625 C 78.445312 -103.128906 76.101562 -104.539062 72.75 -105.125 L 39.40625 -105.125 C 38.71875 -105.125 38.375 -104.773438 38.375 -104.078125 L 38.375 -62.75 C 38.375 -62.21875 38.640625 -61.953125 39.171875 -61.953125 L 66.828125 -61.953125 C 73.972656 -61.953125 77.546875 -66.109375 77.546875 -74.421875 C 77.546875 -74.847656 77.757812 -75.0625 78.1875 -75.0625 L 80.09375 -75.0625 C 80.519531 -75.0625 80.734375 -74.847656 80.734375 -74.421875 L 80.734375 -40.203125 C 80.734375 -39.785156 80.519531 -39.578125 80.09375 -39.578125 L 78.1875 -39.578125 C 77.757812 -39.578125 77.546875 -39.785156 77.546875 -40.203125 C 77.546875 -48.097656 75.253906 -52.65625 70.671875 -53.875 C 69.390625 -54.195312 68.03125 -54.359375 66.59375 -54.359375 L 39.171875 -54.359375 C 38.640625 -54.359375 38.375 -54.09375 38.375 -53.5625 L 38.375 -14.625 C 38.375 -10.632812 40.210938 -8.367188 43.890625 -7.828125 C 44.953125 -7.671875 46.070312 -7.59375 47.25 -7.59375 L 73.859375 -7.59375 C 79.347656 -7.59375 83.613281 -10.019531 86.65625 -14.875 C 88.84375 -18.332031 90.175781 -22.300781 90.65625 -26.78125 C 90.8125 -28.269531 91.609375 -29.015625 93.046875 -29.015625 C 93.691406 -29.015625 94.015625 -28.671875 94.015625 -27.984375 L 91.375 -1.125 C 91.050781 -0.375 90.675781 0 90.25 0 L 1.203125 0 C 0.773438 0 0.5625 -0.210938 0.5625 -0.640625 Z M 0.5625 -0.640625 "/></g></g></g></svg>