<svg xmlns="http://www.w3.org/2000/svg" xmlns:xlink="http://www.w3.org/1999/xlink" width="1920" zoomAndPan="magnify" viewBox="0 0 1440 809.999993" height="1080" preserveAspectRatio="xMidYMid meet" version="1.0"><defs><g/></defs><g fill="#ffffff" fill-opacity="1"><g transform="translate(563.692178, 597.676707)"><g><path d="M 254.015625 -6.53125 L 75.75 -438.171875 C 73.132812 -444.265625 67.144531 -448.179688 57.78125 -449.921875 C 48.425781 -451.671875 41.351562 -452.546875 36.5625 -452.546875 L 32.65625 -452.546875 L 32.65625 -462.328125 L 139.09375 -462.328125 L 139.09375 -452.546875 L 134.515625 -452.546875 C 131.035156 -452.546875 126.25 -452.109375 120.15625 -451.234375 C 114.0625 -450.359375 109.054688 -448.941406 105.140625 -446.984375 C 101.222656 -445.023438 99.914062 -441.867188 101.21875 -437.515625 L 267.078125 -37.21875 L 432.296875 -437.515625 C 434.035156 -441.867188 432.398438 -445.132812 427.390625 -447.3125 C 422.390625 -449.488281 416.296875 -450.90625 409.109375 -451.5625 C 401.929688 -452.21875 395.945312 -452.546875 391.15625 -452.546875 L 383.96875 -452.546875 L 383.96875 -462.328125 L 491.0625 -462.328125 L 491.0625 -452.546875 L 489.109375 -452.546875 C 486.492188 -452.546875 481.8125 -452.21875 475.0625 -451.5625 C 468.320312 -450.90625 461.796875 -449.597656 455.484375 -447.640625 C 449.171875 -445.679688 444.925781 -442.304688 442.75 -437.515625 L 272.3125 -24.8125 L 261.859375 0 L 256.640625 0 Z M 254.015625 -6.53125 "/></g></g></g><g fill="#ffffff" fill-opacity="1"><g transform="translate(443.45883, 620.061458)"><g><path d="M 205.21875 -360.296875 C 186.457031 -359.953125 168.628906 -355.003906 151.734375 -345.453125 C 134.847656 -335.898438 119.925781 -322.59375 106.96875 -305.53125 C 93.65625 -288.46875 83.5 -269.019531 76.5 -247.1875 C 69.507812 -225.351562 66.015625 -202.320312 66.015625 -178.09375 C 66.015625 -154.21875 69.507812 -131.273438 76.5 -109.265625 C 83.5 -87.253906 93.65625 -67.722656 106.96875 -50.671875 C 119.925781 -33.609375 134.847656 -20.382812 151.734375 -11 C 168.628906 -1.613281 186.289062 3.414062 204.71875 4.09375 L 205.734375 4.09375 C 207.097656 4.09375 208.125 4.09375 208.8125 4.09375 C 209.144531 4.09375 209.648438 4.09375 210.328125 4.09375 C 211.015625 4.09375 211.53125 4.09375 211.875 4.09375 C 238.832031 3.070312 263.398438 -6.5625 285.578125 -24.8125 C 307.753906 -43.070312 324.640625 -67.382812 336.234375 -97.75 C 336.578125 -98.4375 337.09375 -98.78125 337.78125 -98.78125 C 338.457031 -98.78125 338.796875 -98.4375 338.796875 -97.75 L 352.109375 -62.4375 C 352.453125 -62.09375 352.453125 -61.75 352.109375 -61.40625 C 335.046875 -40.257812 314.226562 -23.710938 289.65625 -11.765625 C 265.09375 0.171875 239.335938 6.3125 212.390625 6.65625 L 211.359375 6.65625 C 210.679688 6.65625 209.832031 6.65625 208.8125 6.65625 C 207.78125 6.65625 206.582031 6.65625 205.21875 6.65625 C 181 6.3125 157.710938 1.363281 135.359375 -8.1875 C 113.015625 -17.738281 93.484375 -31.21875 76.765625 -48.625 C 59.703125 -66.019531 46.566406 -85.890625 37.359375 -108.234375 C 28.148438 -130.585938 23.546875 -153.875 23.546875 -178.09375 C 23.546875 -202.320312 28.148438 -225.691406 37.359375 -248.203125 C 46.566406 -270.722656 59.703125 -290.6875 76.765625 -308.09375 C 93.484375 -325.15625 112.929688 -338.546875 135.109375 -348.265625 C 157.285156 -357.992188 180.488281 -363.023438 204.71875 -363.359375 L 206.25 -363.359375 C 206.925781 -363.359375 207.78125 -363.359375 208.8125 -363.359375 C 209.488281 -363.359375 210.679688 -363.359375 212.390625 -363.359375 C 239.335938 -362.679688 265.007812 -356.457031 289.40625 -344.6875 C 313.800781 -332.914062 334.703125 -316.453125 352.109375 -295.296875 C 352.453125 -294.953125 352.453125 -294.441406 352.109375 -293.765625 L 338.796875 -258.453125 C 338.796875 -258.109375 338.457031 -257.9375 337.78125 -257.9375 C 337.09375 -257.9375 336.578125 -258.109375 336.234375 -258.453125 C 324.640625 -289.160156 307.753906 -313.640625 285.578125 -331.890625 C 263.398438 -350.140625 239.003906 -359.609375 212.390625 -360.296875 L 211.359375 -360.8125 C 210.679688 -360.8125 209.832031 -360.8125 208.8125 -360.8125 C 207.78125 -360.8125 206.582031 -360.640625 205.21875 -360.296875 Z M 205.21875 -360.296875 "/></g></g></g><g fill="#ffffff" fill-opacity="1"><g transform="translate(436.552059, 715.092884)"><g><path d="M 60.453125 -55.53125 C 60.453125 -55.3125 60.34375 -55.203125 60.125 -55.203125 L 58.640625 -55.203125 C 55.222656 -54.535156 52.707031 -51.742188 51.09375 -46.828125 C 50.664062 -45.535156 50.222656 -44.285156 49.765625 -43.078125 L 33.9375 -0.328125 C 33.6875 0.347656 33.382812 0.753906 33.03125 0.890625 C 32.6875 1.023438 32.207031 1.09375 31.59375 1.09375 L 29.703125 1.09375 C 29.054688 1.09375 28.640625 0.796875 28.453125 0.203125 L 7.21875 -51.265625 C 6.351562 -53.378906 4.226562 -54.679688 0.84375 -55.171875 C 0.65625 -55.191406 0.5 -55.203125 0.375 -55.203125 C 0.257812 -55.203125 0.203125 -55.3125 0.203125 -55.53125 L 0.203125 -56.5 C 0.203125 -56.71875 0.3125 -56.828125 0.53125 -56.828125 L 24.296875 -56.828125 C 24.515625 -56.828125 24.625 -56.71875 24.625 -56.5 L 24.625 -55.53125 C 24.625 -55.3125 24.515625 -55.203125 24.296875 -55.203125 L 23.703125 -55.203125 C 23.023438 -55.097656 22.242188 -54.992188 21.359375 -54.890625 C 17.921875 -54.453125 16.203125 -53.082031 16.203125 -50.78125 C 16.203125 -50.050781 16.390625 -49.269531 16.765625 -48.4375 L 32.03125 -11.28125 C 32.300781 -10.75 32.585938 -10.765625 32.890625 -11.328125 L 46.90625 -49.28125 C 47.09375 -49.820312 47.1875 -50.460938 47.1875 -51.203125 C 47.1875 -51.941406 46.875 -52.648438 46.25 -53.328125 C 45.632812 -54.015625 45.007812 -54.410156 44.375 -54.515625 C 43.75 -54.628906 43.253906 -54.710938 42.890625 -54.765625 C 42.535156 -54.816406 41.992188 -54.898438 41.265625 -55.015625 C 40.535156 -55.140625 40.050781 -55.203125 39.8125 -55.203125 C 39.570312 -55.203125 39.453125 -55.3125 39.453125 -55.53125 L 39.453125 -56.5 C 39.453125 -56.71875 39.5625 -56.828125 39.78125 -56.828125 L 60.125 -56.828125 C 60.34375 -56.828125 60.453125 -56.71875 60.453125 -56.5 Z M 60.453125 -55.53125 "/></g></g></g><g fill="#ffffff" fill-opacity="1"><g transform="translate(503.290933, 715.092884)"><g><path d="M 10.15625 -50.375 C 10.15625 -53.59375 8.300781 -55.203125 4.59375 -55.203125 C 4 -55.203125 3.703125 -55.3125 3.703125 -55.53125 L 3.703125 -56.5 C 3.703125 -56.71875 3.8125 -56.828125 4.03125 -56.828125 L 24.21875 -56.828125 C 24.4375 -56.828125 24.546875 -56.71875 24.546875 -56.5 L 24.546875 -55.53125 C 24.546875 -55.3125 23.953125 -55.203125 22.765625 -55.203125 C 21.585938 -55.203125 20.5 -54.828125 19.5 -54.078125 C 18.507812 -53.328125 18.015625 -51.785156 18.015625 -49.453125 L 18.015625 -6.453125 C 18.015625 -3.222656 19.878906 -1.609375 23.609375 -1.609375 C 24.179688 -1.609375 24.46875 -1.503906 24.46875 -1.296875 L 24.46875 -0.328125 C 24.46875 -0.109375 24.359375 0 24.140625 0 L 3.953125 0 C 3.734375 0 3.625 -0.109375 3.625 -0.328125 L 3.625 -1.296875 C 3.625 -1.503906 4.210938 -1.609375 5.390625 -1.609375 C 6.578125 -1.609375 7.664062 -1.984375 8.65625 -2.734375 C 9.65625 -3.492188 10.15625 -5.039062 10.15625 -7.375 Z M 10.15625 -50.375 "/></g></g></g><g fill="#ffffff" fill-opacity="1"><g transform="translate(537.559082, 715.092884)"><g><path d="M 34.015625 -56.34375 C 34.285156 -56.34375 34.421875 -56.046875 34.421875 -55.453125 L 35.46875 -46.859375 C 35.570312 -46.328125 35.625 -45.988281 35.625 -45.84375 C 35.625 -45.695312 35.414062 -45.625 35 -45.625 C 34.582031 -45.625 34.316406 -45.675781 34.203125 -45.78125 C 34.097656 -45.882812 33.992188 -46.0625 33.890625 -46.3125 C 33.785156 -46.570312 33.65625 -46.863281 33.5 -47.1875 C 33.351562 -47.507812 33.203125 -47.832031 33.046875 -48.15625 C 32.484375 -49.394531 31.597656 -50.617188 30.390625 -51.828125 C 27.429688 -54.671875 24.097656 -56.09375 20.390625 -56.09375 C 18.160156 -56.09375 16.050781 -55.367188 14.0625 -53.921875 C 12.070312 -52.472656 11.078125 -50.757812 11.078125 -48.78125 C 11.078125 -46.800781 11.445312 -45.085938 12.1875 -43.640625 C 12.925781 -42.191406 13.898438 -40.847656 15.109375 -39.609375 C 16.316406 -38.378906 17.695312 -37.195312 19.25 -36.0625 C 20.8125 -34.9375 22.398438 -33.796875 24.015625 -32.640625 C 28.285156 -29.660156 31.320312 -27.109375 33.125 -24.984375 C 35.945312 -21.703125 37.476562 -18.019531 37.71875 -13.9375 C 37.71875 -9.375 35.960938 -5.726562 32.453125 -3 C 28.953125 -0.269531 24.878906 1.09375 20.234375 1.09375 C 17.242188 1.09375 14.867188 0.789062 13.109375 0.1875 C 11.359375 -0.414062 10.144531 -0.851562 9.46875 -1.125 C 8.800781 -1.394531 8.3125 -1.53125 8 -1.53125 C 7.6875 -1.53125 7.492188 -1.515625 7.421875 -1.484375 L 5.4375 -1.09375 C 5.09375 -1.09375 4.878906 -1.375 4.796875 -1.9375 C 4.015625 -8.59375 3.625 -12.128906 3.625 -12.546875 C 3.625 -12.960938 3.65625 -13.242188 3.71875 -13.390625 C 3.789062 -13.546875 3.972656 -13.625 4.265625 -13.625 C 5.023438 -13.625 5.710938 -12.546875 6.328125 -10.390625 C 9.148438 -4.347656 13.835938 -1.328125 20.390625 -1.328125 C 23.398438 -1.328125 25.972656 -2.238281 28.109375 -4.0625 C 30.242188 -5.894531 31.3125 -8.273438 31.3125 -11.203125 C 31.3125 -15.878906 28.519531 -20.234375 22.9375 -24.265625 C 21.34375 -25.390625 19.054688 -26.957031 16.078125 -28.96875 C 13.097656 -30.988281 10.722656 -33.003906 8.953125 -35.015625 C 6.179688 -38.128906 4.796875 -41.597656 4.796875 -45.421875 C 4.796875 -49.253906 6.316406 -52.394531 9.359375 -54.84375 C 12.410156 -57.289062 15.910156 -58.515625 19.859375 -58.515625 C 21.910156 -58.515625 24.160156 -58.164062 26.609375 -57.46875 C 29.066406 -56.769531 30.78125 -56.300781 31.75 -56.0625 Z M 34.015625 -56.34375 "/></g></g></g><g fill="#ffffff" fill-opacity="1"><g transform="translate(585.000847, 715.092884)"><g><path d="M 10.15625 -50.375 C 10.15625 -53.59375 8.300781 -55.203125 4.59375 -55.203125 C 4 -55.203125 3.703125 -55.3125 3.703125 -55.53125 L 3.703125 -56.5 C 3.703125 -56.71875 3.8125 -56.828125 4.03125 -56.828125 L 24.21875 -56.828125 C 24.4375 -56.828125 24.546875 -56.71875 24.546875 -56.5 L 24.546875 -55.53125 C 24.546875 -55.3125 23.953125 -55.203125 22.765625 -55.203125 C 21.585938 -55.203125 20.5 -54.828125 19.5 -54.078125 C 18.507812 -53.328125 18.015625 -51.785156 18.015625 -49.453125 L 18.015625 -6.453125 C 18.015625 -3.222656 19.878906 -1.609375 23.609375 -1.609375 C 24.179688 -1.609375 24.46875 -1.503906 24.46875 -1.296875 L 24.46875 -0.328125 C 24.46875 -0.109375 24.359375 0 24.140625 0 L 3.953125 0 C 3.734375 0 3.625 -0.109375 3.625 -0.328125 L 3.625 -1.296875 C 3.625 -1.503906 4.210938 -1.609375 5.390625 -1.609375 C 6.578125 -1.609375 7.664062 -1.984375 8.65625 -2.734375 C 9.65625 -3.492188 10.15625 -5.039062 10.15625 -7.375 Z M 10.15625 -50.375 "/></g></g></g><g fill="#ffffff" fill-opacity="1"><g transform="translate(619.269004, 715.092884)"><g><path d="M 51.65625 -3.46875 C 49.320312 -2.039062 46.769531 -0.921875 44 -0.109375 C 41.238281 0.691406 38.78125 1.09375 36.625 1.09375 C 32.21875 1.09375 28.015625 0.378906 24.015625 -1.046875 C 18.535156 -3.035156 14.128906 -5.976562 10.796875 -9.875 C 6.554688 -14.84375 4.4375 -21.140625 4.4375 -28.765625 C 4.4375 -34.273438 5.84375 -39.289062 8.65625 -43.8125 C 11.476562 -48.34375 15.378906 -51.925781 20.359375 -54.5625 C 25.347656 -57.195312 30.707031 -58.515625 36.4375 -58.515625 C 42.175781 -58.515625 47.316406 -57.238281 51.859375 -54.6875 C 56.398438 -52.132812 60.039062 -48.628906 62.78125 -44.171875 C 65.519531 -39.710938 66.890625 -34.878906 66.890625 -29.671875 C 66.890625 -24.472656 65.53125 -19.53125 62.8125 -14.84375 C 60.101562 -10.15625 56.382812 -6.363281 51.65625 -3.46875 Z M 12.890625 -30.0625 C 12.890625 -25.601562 13.875 -21.175781 15.84375 -16.78125 C 17.820312 -12.394531 20.648438 -8.816406 24.328125 -6.046875 C 28.015625 -3.273438 32.273438 -1.890625 37.109375 -1.890625 C 43.992188 -1.890625 49.351562 -4.523438 53.1875 -9.796875 C 56.65625 -14.546875 58.390625 -20.613281 58.390625 -28 C 58.390625 -35.394531 56.269531 -41.765625 52.03125 -47.109375 C 49.957031 -49.710938 47.421875 -51.800781 44.421875 -53.375 C 41.429688 -54.945312 38.410156 -55.734375 35.359375 -55.734375 C 32.304688 -55.734375 29.804688 -55.394531 27.859375 -54.71875 C 25.910156 -54.050781 24.144531 -53.132812 22.5625 -51.96875 C 20.976562 -50.800781 19.582031 -49.410156 18.375 -47.796875 C 17.164062 -46.179688 16.160156 -44.4375 15.359375 -42.5625 C 13.710938 -38.6875 12.890625 -34.519531 12.890625 -30.0625 Z M 12.890625 -30.0625 "/></g></g></g><g fill="#ffffff" fill-opacity="1"><g transform="translate(696.683748, 715.092884)"><g><path d="M 2.734375 0 C 2.523438 0 2.421875 -0.109375 2.421875 -0.328125 L 2.421875 -1.296875 C 2.421875 -1.503906 2.554688 -1.609375 2.828125 -1.609375 L 3.75 -1.609375 C 5.226562 -1.609375 6.234375 -1.742188 6.765625 -2.015625 C 8.753906 -2.984375 9.75 -5.644531 9.75 -10 L 9.75 -51.859375 C 9.75 -53.660156 8.003906 -54.738281 4.515625 -55.09375 C 3.734375 -55.164062 3.1875 -55.203125 2.875 -55.203125 C 2.570312 -55.203125 2.421875 -55.3125 2.421875 -55.53125 L 2.421875 -56.5 C 2.421875 -56.71875 2.523438 -56.828125 2.734375 -56.828125 L 17.484375 -56.828125 L 55.734375 -14.546875 C 55.867188 -14.410156 55.960938 -14.304688 56.015625 -14.234375 C 56.066406 -14.171875 56.148438 -14.140625 56.265625 -14.140625 C 56.390625 -14.140625 56.453125 -14.257812 56.453125 -14.5 L 56.453125 -42.265625 C 56.453125 -47.617188 56.007812 -51.113281 55.125 -52.75 C 54.238281 -54.382812 52.453125 -55.203125 49.765625 -55.203125 L 47.71875 -55.203125 C 47.5 -55.203125 47.390625 -55.3125 47.390625 -55.53125 L 47.390625 -56.5 C 47.390625 -56.71875 47.5 -56.828125 47.71875 -56.828125 L 68.671875 -56.828125 C 68.878906 -56.828125 68.984375 -56.71875 68.984375 -56.5 L 68.984375 -55.53125 C 68.984375 -55.3125 68.585938 -55.203125 67.796875 -55.203125 C 67.003906 -55.203125 65.703125 -54.742188 63.890625 -53.828125 C 62.078125 -52.921875 61.171875 -51.796875 61.171875 -50.453125 L 61.171875 -1.171875 C 61.171875 -0.578125 61.085938 -0.15625 60.921875 0.09375 C 60.765625 0.351562 60.382812 0.484375 59.78125 0.484375 C 59.175781 0.484375 58.722656 0.363281 58.421875 0.125 C 58.128906 -0.113281 57.785156 -0.460938 57.390625 -0.921875 L 15.84375 -46.984375 C 15.570312 -47.253906 15.328125 -47.390625 15.109375 -47.390625 C 14.972656 -47.390625 14.90625 -47.253906 14.90625 -46.984375 L 14.90625 -6.765625 C 14.90625 -4.328125 16.84375 -2.71875 20.71875 -1.9375 C 21.789062 -1.71875 22.609375 -1.609375 23.171875 -1.609375 C 23.734375 -1.609375 24.015625 -1.503906 24.015625 -1.296875 L 24.015625 -0.328125 C 24.015625 -0.109375 23.910156 0 23.703125 0 Z M 2.734375 0 "/></g></g></g><g fill="#ffffff" fill-opacity="1"><g transform="translate(773.171889, 715.092884)"><g/></g></g><g fill="#ffffff" fill-opacity="1"><g transform="translate(801.437376, 715.092884)"><g><path d="M 54.203125 -1.53125 C 54.066406 -1.3125 53.734375 -1.265625 53.203125 -1.390625 C 52.679688 -1.515625 52.070312 -1.578125 51.375 -1.578125 C 50.675781 -1.578125 49.6875 -1.429688 48.40625 -1.140625 C 47.132812 -0.859375 45.128906 -0.414062 42.390625 0.1875 C 39.648438 0.789062 37.15625 1.09375 34.90625 1.09375 C 29.789062 1.09375 24.835938 -0.109375 20.046875 -2.515625 C 15.253906 -4.921875 11.421875 -8.332031 8.546875 -12.75 C 5.671875 -17.175781 4.234375 -22.300781 4.234375 -28.125 C 4.234375 -33.957031 5.671875 -39.238281 8.546875 -43.96875 C 12.734375 -50.894531 19.046875 -55.40625 27.484375 -57.5 C 30.171875 -58.175781 32.859375 -58.515625 35.546875 -58.515625 C 39.222656 -58.515625 43.585938 -57.894531 48.640625 -56.65625 C 50.171875 -56.28125 51.46875 -55.890625 52.53125 -55.484375 C 53.59375 -55.085938 54.242188 -54.890625 54.484375 -54.890625 L 55.6875 -55.203125 L 56.9375 -55.203125 C 57.257812 -55.203125 57.421875 -54.976562 57.421875 -54.53125 L 57.421875 -41.984375 C 57.421875 -41.722656 57.175781 -41.59375 56.6875 -41.59375 C 56.207031 -41.59375 55.925781 -41.648438 55.84375 -41.765625 C 55.769531 -41.890625 55.691406 -42.035156 55.609375 -42.203125 C 55.523438 -42.378906 55.4375 -42.5625 55.34375 -42.75 C 55.25 -42.9375 55.15625 -43.109375 55.0625 -43.265625 C 54.96875 -43.429688 54.910156 -43.554688 54.890625 -43.640625 C 50.859375 -51.722656 44.742188 -55.765625 36.546875 -55.765625 C 29.160156 -55.765625 23.382812 -53.414062 19.21875 -48.71875 C 15.050781 -44.019531 12.96875 -37.796875 12.96875 -30.046875 C 12.96875 -22.296875 15.257812 -15.640625 19.84375 -10.078125 C 24.425781 -4.515625 30.65625 -1.734375 38.53125 -1.734375 C 42.820312 -1.734375 46.734375 -3.007812 50.265625 -5.5625 C 53.804688 -8.113281 56.582031 -11.242188 58.59375 -14.953125 C 58.644531 -15.109375 58.804688 -15.1875 59.078125 -15.1875 L 59.59375 -15.1875 C 59.863281 -15.1875 60 -15.023438 60 -14.703125 C 60 -14.378906 59.921875 -14.070312 59.765625 -13.78125 Z M 54.203125 -1.53125 "/></g></g></g><g fill="#ffffff" fill-opacity="1"><g transform="translate(870.633703, 715.092884)"><g><path d="M 51.65625 -3.46875 C 49.320312 -2.039062 46.769531 -0.921875 44 -0.109375 C 41.238281 0.691406 38.78125 1.09375 36.625 1.09375 C 32.21875 1.09375 28.015625 0.378906 24.015625 -1.046875 C 18.535156 -3.035156 14.128906 -5.976562 10.796875 -9.875 C 6.554688 -14.84375 4.4375 -21.140625 4.4375 -28.765625 C 4.4375 -34.273438 5.84375 -39.289062 8.65625 -43.8125 C 11.476562 -48.34375 15.378906 -51.925781 20.359375 -54.5625 C 25.347656 -57.195312 30.707031 -58.515625 36.4375 -58.515625 C 42.175781 -58.515625 47.316406 -57.238281 51.859375 -54.6875 C 56.398438 -52.132812 60.039062 -48.628906 62.78125 -44.171875 C 65.519531 -39.710938 66.890625 -34.878906 66.890625 -29.671875 C 66.890625 -24.472656 65.53125 -19.53125 62.8125 -14.84375 C 60.101562 -10.15625 56.382812 -6.363281 51.65625 -3.46875 Z M 12.890625 -30.0625 C 12.890625 -25.601562 13.875 -21.175781 15.84375 -16.78125 C 17.820312 -12.394531 20.648438 -8.816406 24.328125 -6.046875 C 28.015625 -3.273438 32.273438 -1.890625 37.109375 -1.890625 C 43.992188 -1.890625 49.351562 -4.523438 53.1875 -9.796875 C 56.65625 -14.546875 58.390625 -20.613281 58.390625 -28 C 58.390625 -35.394531 56.269531 -41.765625 52.03125 -47.109375 C 49.957031 -49.710938 47.421875 -51.800781 44.421875 -53.375 C 41.429688 -54.945312 38.410156 -55.734375 35.359375 -55.734375 C 32.304688 -55.734375 29.804688 -55.394531 27.859375 -54.71875 C 25.910156 -54.050781 24.144531 -53.132812 22.5625 -51.96875 C 20.976562 -50.800781 19.582031 -49.410156 18.375 -47.796875 C 17.164062 -46.179688 16.160156 -44.4375 15.359375 -42.5625 C 13.710938 -38.6875 12.890625 -34.519531 12.890625 -30.0625 Z M 12.890625 -30.0625 "/></g></g></g><g fill="#ffffff" fill-opacity="1"><g transform="translate(948.048428, 715.092884)"><g><path d="M 2.09375 0 C 1.875 0 1.765625 -0.269531 1.765625 -0.8125 L 1.765625 -1.296875 C 1.765625 -1.503906 1.875 -1.609375 2.09375 -1.609375 C 2.257812 -1.609375 2.515625 -1.632812 2.859375 -1.6875 C 3.210938 -1.738281 3.578125 -1.789062 3.953125 -1.84375 C 4.328125 -1.90625 4.675781 -1.96875 5 -2.03125 C 5.320312 -2.101562 5.550781 -2.148438 5.6875 -2.171875 C 8.425781 -2.796875 9.796875 -4.351562 9.796875 -6.84375 L 9.796875 -49.40625 C 9.796875 -51.71875 8.867188 -53.359375 7.015625 -54.328125 C 5.910156 -54.910156 4.726562 -55.203125 3.46875 -55.203125 L 1.9375 -55.203125 C 1.71875 -55.203125 1.609375 -55.3125 1.609375 -55.53125 L 1.609375 -56.5 C 1.609375 -56.71875 1.769531 -56.828125 2.09375 -56.828125 L 24.21875 -57.421875 L 28.296875 -57.421875 C 33.046875 -57.097656 37.023438 -55.367188 40.234375 -52.234375 C 43.441406 -49.109375 45.046875 -45.253906 45.046875 -40.671875 C 45.046875 -36.097656 43.140625 -32.535156 39.328125 -29.984375 C 38.148438 -29.203125 36.875 -28.503906 35.5 -27.890625 L 47.71875 -7.9375 C 49.832031 -4.445312 52.675781 -1.988281 56.25 -0.5625 C 56.550781 -0.476562 56.703125 -0.289062 56.703125 0 C 56.703125 0.664062 56.257812 1 55.375 1 C 49.320312 1 44.507812 -1.296875 40.9375 -5.890625 C 40.164062 -6.910156 39.390625 -8.050781 38.609375 -9.3125 L 28.171875 -25.671875 L 18.578125 -26.109375 L 18.25 -26.109375 C 17.851562 -26.109375 17.65625 -25.921875 17.65625 -25.546875 L 17.65625 -6.96875 C 17.65625 -5.488281 18.070312 -4.382812 18.90625 -3.65625 C 19.738281 -2.9375 21.175781 -2.441406 23.21875 -2.171875 C 23.75 -2.097656 24.40625 -1.984375 25.1875 -1.828125 C 25.96875 -1.679688 26.5 -1.609375 26.78125 -1.609375 C 27.0625 -1.609375 27.203125 -1.503906 27.203125 -1.296875 L 27.203125 -0.328125 C 27.203125 -0.109375 27.09375 0 26.875 0 Z M 20.921875 -55.3125 C 20.597656 -55.300781 20.253906 -55.285156 19.890625 -55.265625 C 19.523438 -55.253906 19.0625 -55.238281 18.5 -55.21875 C 17.9375 -55.207031 17.65625 -54.988281 17.65625 -54.5625 L 17.65625 -30.140625 L 17.734375 -28.9375 C 17.816406 -28.375 18.070312 -28.078125 18.5 -28.046875 L 22.609375 -27.8125 C 30.160156 -27.8125 34.710938 -30.492188 36.265625 -35.859375 C 36.773438 -37.554688 37.03125 -39.492188 37.03125 -41.671875 C 37.03125 -45.910156 35.707031 -49.253906 33.0625 -51.703125 C 30.414062 -54.148438 27.039062 -55.375 22.9375 -55.375 C 22.550781 -55.375 22.195312 -55.363281 21.875 -55.34375 C 21.5625 -55.332031 21.242188 -55.320312 20.921875 -55.3125 Z M 20.921875 -55.3125 "/></g></g></g><g fill="#ffffff" fill-opacity="1"><g transform="translate(1011.322675, 715.092884)"><g><path d="M 0.28125 -0.328125 L 0.28125 -1.453125 C 0.28125 -1.660156 0.390625 -1.765625 0.609375 -1.765625 L 1.484375 -1.765625 C 2.617188 -1.847656 3.773438 -1.894531 4.953125 -1.90625 C 6.140625 -1.925781 7.21875 -2.070312 8.1875 -2.34375 C 10.382812 -2.976562 11.484375 -4.585938 11.484375 -7.171875 L 11.484375 -49.640625 C 11.484375 -52.304688 9.910156 -54 6.765625 -54.71875 C 5.878906 -54.90625 4.976562 -55.066406 4.0625 -55.203125 L 3.21875 -55.203125 C 3.007812 -55.203125 2.90625 -55.3125 2.90625 -55.53125 L 2.90625 -56.5 C 2.90625 -56.71875 3.007812 -56.828125 3.21875 -56.828125 L 41.546875 -56.828125 C 42.023438 -56.828125 42.375 -56.738281 42.59375 -56.5625 C 42.8125 -56.382812 42.945312 -56 43 -55.40625 L 43.71875 -43.71875 C 43.71875 -43.457031 43.515625 -43.328125 43.109375 -43.328125 C 42.710938 -43.328125 42.421875 -43.445312 42.234375 -43.6875 C 42.066406 -43.957031 41.851562 -44.9375 41.59375 -46.625 C 41.34375 -48.320312 40.878906 -49.734375 40.203125 -50.859375 C 39.535156 -51.984375 38.359375 -52.695312 36.671875 -53 L 19.859375 -53 C 19.515625 -53 19.34375 -52.820312 19.34375 -52.46875 L 19.34375 -31.640625 C 19.34375 -31.367188 19.476562 -31.234375 19.75 -31.234375 L 33.6875 -31.234375 C 37.289062 -31.234375 39.09375 -33.328125 39.09375 -37.515625 C 39.09375 -37.734375 39.195312 -37.84375 39.40625 -37.84375 L 40.375 -37.84375 C 40.59375 -37.84375 40.703125 -37.734375 40.703125 -37.515625 L 40.703125 -20.265625 C 40.703125 -20.054688 40.59375 -19.953125 40.375 -19.953125 L 39.40625 -19.953125 C 39.195312 -19.953125 39.09375 -20.054688 39.09375 -20.265625 C 39.09375 -24.242188 37.9375 -26.539062 35.625 -27.15625 C 34.976562 -27.320312 34.289062 -27.40625 33.5625 -27.40625 L 19.75 -27.40625 C 19.476562 -27.40625 19.34375 -27.269531 19.34375 -27 L 19.34375 -7.375 C 19.34375 -5.363281 20.269531 -4.222656 22.125 -3.953125 C 22.664062 -3.867188 23.226562 -3.828125 23.8125 -3.828125 L 37.234375 -3.828125 C 40.003906 -3.828125 42.15625 -5.050781 43.6875 -7.5 C 44.78125 -9.238281 45.453125 -11.238281 45.703125 -13.5 C 45.773438 -14.25 46.175781 -14.625 46.90625 -14.625 C 47.226562 -14.625 47.390625 -14.453125 47.390625 -14.109375 L 46.0625 -0.5625 C 45.894531 -0.1875 45.707031 0 45.5 0 L 0.609375 0 C 0.390625 0 0.28125 -0.109375 0.28125 -0.328125 Z M 0.28125 -0.328125 "/></g></g></g></svg>