<svg xmlns="http://www.w3.org/2000/svg" xmlns:xlink="http://www.w3.org/1999/xlink" width="1920" zoomAndPan="magnify" viewBox="0 0 1440 809.999993" height="1080" preserveAspectRatio="xMidYMid meet" version="1.0"><defs><g/></defs><g fill="#ffffff" fill-opacity="1"><g transform="translate(107.09839, 512.721426)"><g><path d="M 141.640625 -3.640625 L 42.234375 -244.3125 C 40.773438 -247.71875 37.4375 -249.90625 32.21875 -250.875 C 27 -251.84375 23.054688 -252.328125 20.390625 -252.328125 L 18.203125 -252.328125 L 18.203125 -257.796875 L 77.5625 -257.796875 L 77.5625 -252.328125 L 75 -252.328125 C 73.0625 -252.328125 70.394531 -252.082031 67 -251.59375 C 63.601562 -251.113281 60.8125 -250.328125 58.625 -249.234375 C 56.4375 -248.140625 55.707031 -246.378906 56.4375 -243.953125 L 148.921875 -20.75 L 241.046875 -243.953125 C 242.015625 -246.378906 241.101562 -248.195312 238.3125 -249.40625 C 235.519531 -250.625 232.117188 -251.414062 228.109375 -251.78125 C 224.109375 -252.144531 220.769531 -252.328125 218.09375 -252.328125 L 214.09375 -252.328125 L 214.09375 -257.796875 L 273.8125 -257.796875 L 273.8125 -252.328125 L 272.71875 -252.328125 C 271.257812 -252.328125 268.648438 -252.144531 264.890625 -251.78125 C 261.128906 -251.414062 257.488281 -250.6875 253.96875 -249.59375 C 250.445312 -248.5 248.078125 -246.617188 246.859375 -243.953125 L 151.828125 -13.84375 L 146.015625 0 L 143.09375 0 Z M 141.640625 -3.640625 "/></g></g></g><g fill="#ffffff" fill-opacity="1"><g transform="translate(40.05888, 525.20265)"><g><path d="M 114.421875 -200.890625 C 103.960938 -200.703125 94.023438 -197.941406 84.609375 -192.609375 C 75.191406 -187.285156 66.867188 -179.867188 59.640625 -170.359375 C 52.222656 -160.847656 46.5625 -150.003906 42.65625 -137.828125 C 38.757812 -125.648438 36.8125 -112.8125 36.8125 -99.3125 C 36.8125 -85.988281 38.757812 -73.191406 42.65625 -60.921875 C 46.5625 -48.648438 52.222656 -37.757812 59.640625 -28.25 C 66.867188 -18.738281 75.191406 -11.363281 84.609375 -6.125 C 94.023438 -0.894531 103.867188 1.90625 114.140625 2.28125 L 114.71875 2.28125 C 115.476562 2.28125 116.046875 2.28125 116.421875 2.28125 C 116.617188 2.28125 116.90625 2.28125 117.28125 2.28125 C 117.664062 2.28125 117.953125 2.28125 118.140625 2.28125 C 133.171875 1.707031 146.867188 -3.664062 159.234375 -13.84375 C 171.597656 -24.019531 181.015625 -37.570312 187.484375 -54.5 C 187.671875 -54.882812 187.957031 -55.078125 188.34375 -55.078125 C 188.71875 -55.078125 188.90625 -54.882812 188.90625 -54.5 L 196.328125 -34.8125 C 196.515625 -34.625 196.515625 -34.4375 196.328125 -34.25 C 186.816406 -22.445312 175.210938 -13.21875 161.515625 -6.5625 C 147.816406 0.09375 133.453125 3.515625 118.421875 3.703125 L 117.859375 3.703125 C 117.472656 3.703125 116.992188 3.703125 116.421875 3.703125 C 115.859375 3.703125 115.191406 3.703125 114.421875 3.703125 C 100.921875 3.515625 87.9375 0.757812 75.46875 -4.5625 C 63.007812 -9.894531 52.117188 -17.410156 42.796875 -27.109375 C 33.285156 -36.804688 25.960938 -47.882812 20.828125 -60.34375 C 15.691406 -72.8125 13.125 -85.800781 13.125 -99.3125 C 13.125 -112.8125 15.691406 -125.835938 20.828125 -138.390625 C 25.960938 -150.953125 33.285156 -162.082031 42.796875 -171.78125 C 52.117188 -181.289062 62.960938 -188.753906 75.328125 -194.171875 C 87.703125 -199.597656 100.640625 -202.410156 114.140625 -202.609375 L 115 -202.609375 C 115.382812 -202.609375 115.859375 -202.609375 116.421875 -202.609375 C 116.804688 -202.609375 117.472656 -202.609375 118.421875 -202.609375 C 133.453125 -202.222656 147.769531 -198.75 161.375 -192.1875 C 174.976562 -185.625 186.628906 -176.445312 196.328125 -164.65625 C 196.515625 -164.457031 196.515625 -164.171875 196.328125 -163.796875 L 188.90625 -144.109375 C 188.90625 -143.921875 188.71875 -143.828125 188.34375 -143.828125 C 187.957031 -143.828125 187.671875 -143.921875 187.484375 -144.109375 C 181.015625 -161.222656 171.597656 -174.867188 159.234375 -185.046875 C 146.867188 -195.234375 133.265625 -200.515625 118.421875 -200.890625 L 117.859375 -201.171875 C 117.472656 -201.171875 116.992188 -201.171875 116.421875 -201.171875 C 115.859375 -201.171875 115.191406 -201.078125 114.421875 -200.890625 Z M 114.421875 -200.890625 "/></g></g></g><g fill="#ffffff" fill-opacity="1"><g transform="translate(332.448302, 450.416754)"><g><path d="M 19.96875 -99.09375 C 19.96875 -105.425781 16.320312 -108.59375 9.03125 -108.59375 C 7.875 -108.59375 7.296875 -108.804688 7.296875 -109.234375 L 7.296875 -111.140625 C 7.296875 -111.554688 7.503906 -111.765625 7.921875 -111.765625 L 47.640625 -111.765625 C 48.066406 -111.765625 48.28125 -111.554688 48.28125 -111.140625 L 48.28125 -109.234375 C 48.28125 -108.804688 47.113281 -108.59375 44.78125 -108.59375 C 42.457031 -108.59375 40.316406 -107.851562 38.359375 -106.375 C 36.410156 -104.894531 35.4375 -101.859375 35.4375 -97.265625 L 35.4375 -12.6875 C 35.4375 -6.34375 39.109375 -3.171875 46.453125 -3.171875 C 47.554688 -3.171875 48.109375 -2.957031 48.109375 -2.53125 L 48.109375 -0.640625 C 48.109375 -0.210938 47.898438 0 47.484375 0 L 7.765625 0 C 7.347656 0 7.140625 -0.210938 7.140625 -0.640625 L 7.140625 -2.53125 C 7.140625 -2.957031 8.300781 -3.171875 10.625 -3.171875 C 12.945312 -3.171875 15.082031 -3.910156 17.03125 -5.390625 C 18.988281 -6.867188 19.96875 -9.90625 19.96875 -14.5 Z M 19.96875 -99.09375 "/></g></g></g><g fill="#ffffff" fill-opacity="1"><g transform="translate(399.859115, 450.416754)"><g><path d="M 66.90625 -110.8125 C 67.4375 -110.8125 67.703125 -110.234375 67.703125 -109.078125 L 69.75 -92.1875 C 69.96875 -91.132812 70.078125 -90.460938 70.078125 -90.171875 C 70.078125 -89.878906 69.664062 -89.734375 68.84375 -89.734375 C 68.019531 -89.734375 67.503906 -89.835938 67.296875 -90.046875 C 67.085938 -90.253906 66.875 -90.609375 66.65625 -91.109375 C 66.445312 -91.617188 66.195312 -92.191406 65.90625 -92.828125 C 65.613281 -93.460938 65.3125 -94.097656 65 -94.734375 C 63.894531 -97.160156 62.148438 -99.5625 59.765625 -101.9375 C 53.953125 -107.539062 47.398438 -110.34375 40.109375 -110.34375 C 35.722656 -110.34375 31.570312 -108.914062 27.65625 -106.0625 C 23.75 -103.207031 21.796875 -99.835938 21.796875 -95.953125 C 21.796875 -92.066406 22.519531 -88.695312 23.96875 -85.84375 C 25.425781 -82.988281 27.34375 -80.347656 29.71875 -77.921875 C 32.101562 -75.492188 34.828125 -73.164062 37.890625 -70.9375 C 40.953125 -68.71875 44.070312 -66.472656 47.25 -64.203125 C 55.644531 -58.335938 61.613281 -53.316406 65.15625 -49.140625 C 70.707031 -42.691406 73.722656 -35.453125 74.203125 -27.421875 C 74.203125 -18.441406 70.75 -11.269531 63.84375 -5.90625 C 56.945312 -0.539062 48.929688 2.140625 39.796875 2.140625 C 33.929688 2.140625 29.265625 1.546875 25.796875 0.359375 C 22.335938 -0.828125 19.945312 -1.6875 18.625 -2.21875 C 17.300781 -2.75 16.335938 -3.015625 15.734375 -3.015625 C 15.128906 -3.015625 14.742188 -2.988281 14.578125 -2.9375 L 10.703125 -2.140625 C 10.015625 -2.140625 9.59375 -2.695312 9.4375 -3.8125 C 7.90625 -16.914062 7.140625 -23.875 7.140625 -24.6875 C 7.140625 -25.507812 7.203125 -26.066406 7.328125 -26.359375 C 7.460938 -26.648438 7.820312 -26.796875 8.40625 -26.796875 C 9.882812 -26.796875 11.226562 -24.679688 12.4375 -20.453125 C 17.988281 -8.554688 27.210938 -2.609375 40.109375 -2.609375 C 46.023438 -2.609375 51.082031 -4.40625 55.28125 -8 C 59.488281 -11.59375 61.59375 -16.269531 61.59375 -22.03125 C 61.59375 -31.226562 56.097656 -39.789062 45.109375 -47.71875 C 41.984375 -49.9375 37.488281 -53.023438 31.625 -56.984375 C 25.757812 -60.953125 21.082031 -64.921875 17.59375 -68.890625 C 12.15625 -75.015625 9.4375 -81.84375 9.4375 -89.375 C 9.4375 -96.90625 12.429688 -103.070312 18.421875 -107.875 C 24.421875 -112.6875 31.304688 -115.09375 39.078125 -115.09375 C 43.097656 -115.09375 47.523438 -114.40625 52.359375 -113.03125 C 57.191406 -111.664062 60.5625 -110.742188 62.46875 -110.265625 Z M 66.90625 -110.8125 "/></g></g></g><g fill="#ffffff" fill-opacity="1"><g transform="translate(493.184468, 450.416754)"><g><path d="M 19.96875 -99.09375 C 19.96875 -105.425781 16.320312 -108.59375 9.03125 -108.59375 C 7.875 -108.59375 7.296875 -108.804688 7.296875 -109.234375 L 7.296875 -111.140625 C 7.296875 -111.554688 7.503906 -111.765625 7.921875 -111.765625 L 47.640625 -111.765625 C 48.066406 -111.765625 48.28125 -111.554688 48.28125 -111.140625 L 48.28125 -109.234375 C 48.28125 -108.804688 47.113281 -108.59375 44.78125 -108.59375 C 42.457031 -108.59375 40.316406 -107.851562 38.359375 -106.375 C 36.410156 -104.894531 35.4375 -101.859375 35.4375 -97.265625 L 35.4375 -12.6875 C 35.4375 -6.34375 39.109375 -3.171875 46.453125 -3.171875 C 47.554688 -3.171875 48.109375 -2.957031 48.109375 -2.53125 L 48.109375 -0.640625 C 48.109375 -0.210938 47.898438 0 47.484375 0 L 7.765625 0 C 7.347656 0 7.140625 -0.210938 7.140625 -0.640625 L 7.140625 -2.53125 C 7.140625 -2.957031 8.300781 -3.171875 10.625 -3.171875 C 12.945312 -3.171875 15.082031 -3.910156 17.03125 -5.390625 C 18.988281 -6.867188 19.96875 -9.90625 19.96875 -14.5 Z M 19.96875 -99.09375 "/></g></g></g><g fill="#ffffff" fill-opacity="1"><g transform="translate(560.595276, 450.416754)"><g><path d="M 101.625 -6.8125 C 97.03125 -4.007812 92.007812 -1.816406 86.5625 -0.234375 C 81.113281 1.347656 76.28125 2.140625 72.0625 2.140625 C 63.394531 2.140625 55.125 0.738281 47.25 -2.0625 C 36.46875 -5.96875 27.800781 -11.753906 21.25 -19.421875 C 12.894531 -29.191406 8.71875 -41.582031 8.71875 -56.59375 C 8.71875 -67.425781 11.488281 -77.296875 17.03125 -86.203125 C 22.582031 -95.109375 30.257812 -102.148438 40.0625 -107.328125 C 49.875 -112.503906 60.421875 -115.09375 71.703125 -115.09375 C 82.984375 -115.09375 93.085938 -112.582031 102.015625 -107.5625 C 110.953125 -102.539062 118.113281 -95.644531 123.5 -86.875 C 128.894531 -78.101562 131.59375 -68.601562 131.59375 -58.375 C 131.59375 -48.15625 128.921875 -38.429688 123.578125 -29.203125 C 118.242188 -19.984375 110.925781 -12.519531 101.625 -6.8125 Z M 25.359375 -59.125 C 25.359375 -50.351562 27.300781 -41.648438 31.1875 -33.015625 C 35.070312 -24.378906 40.632812 -17.335938 47.875 -11.890625 C 55.113281 -6.441406 63.488281 -3.71875 73 -3.71875 C 86.53125 -3.71875 97.078125 -8.898438 104.640625 -19.265625 C 111.453125 -28.617188 114.859375 -40.5625 114.859375 -55.09375 C 114.859375 -69.625 110.6875 -82.148438 102.34375 -92.671875 C 98.269531 -97.796875 93.285156 -101.898438 87.390625 -104.984375 C 81.503906 -108.078125 75.5625 -109.625 69.5625 -109.625 C 63.5625 -109.625 58.644531 -108.960938 54.8125 -107.640625 C 50.976562 -106.328125 47.503906 -104.519531 44.390625 -102.21875 C 41.273438 -99.914062 38.523438 -97.175781 36.140625 -94 C 33.765625 -90.832031 31.785156 -87.398438 30.203125 -83.703125 C 26.972656 -76.097656 25.359375 -67.90625 25.359375 -59.125 Z M 25.359375 -59.125 "/></g></g></g><g fill="#ffffff" fill-opacity="1"><g transform="translate(712.882166, 450.416754)"><g><path d="M 5.390625 0 C 4.960938 0 4.75 -0.210938 4.75 -0.640625 L 4.75 -2.53125 C 4.75 -2.957031 5.015625 -3.171875 5.546875 -3.171875 L 7.375 -3.171875 C 10.28125 -3.171875 12.257812 -3.4375 13.3125 -3.96875 C 17.226562 -5.863281 19.1875 -11.09375 19.1875 -19.65625 L 19.1875 -102.015625 C 19.1875 -105.554688 15.75 -107.671875 8.875 -108.359375 C 7.34375 -108.515625 6.269531 -108.59375 5.65625 -108.59375 C 5.050781 -108.59375 4.75 -108.804688 4.75 -109.234375 L 4.75 -111.140625 C 4.75 -111.554688 4.960938 -111.765625 5.390625 -111.765625 L 34.40625 -111.765625 L 109.625 -28.609375 C 109.894531 -28.347656 110.082031 -28.148438 110.1875 -28.015625 C 110.289062 -27.890625 110.460938 -27.828125 110.703125 -27.828125 C 110.941406 -27.828125 111.0625 -28.0625 111.0625 -28.53125 L 111.0625 -83.15625 C 111.0625 -93.664062 110.1875 -100.53125 108.4375 -103.75 C 106.695312 -106.976562 103.179688 -108.59375 97.890625 -108.59375 L 93.859375 -108.59375 C 93.429688 -108.59375 93.21875 -108.804688 93.21875 -109.234375 L 93.21875 -111.140625 C 93.21875 -111.554688 93.429688 -111.765625 93.859375 -111.765625 L 135.078125 -111.765625 C 135.492188 -111.765625 135.703125 -111.554688 135.703125 -111.140625 L 135.703125 -109.234375 C 135.703125 -108.804688 134.921875 -108.59375 133.359375 -108.59375 C 131.804688 -108.59375 129.242188 -107.691406 125.671875 -105.890625 C 122.109375 -104.097656 120.328125 -101.882812 120.328125 -99.25 L 120.328125 -2.296875 C 120.328125 -1.140625 120.164062 -0.3125 119.84375 0.1875 C 119.53125 0.695312 118.78125 0.953125 117.59375 0.953125 C 116.40625 0.953125 115.519531 0.710938 114.9375 0.234375 C 114.351562 -0.234375 113.664062 -0.921875 112.875 -1.828125 L 31.15625 -92.421875 C 30.625 -92.953125 30.144531 -93.21875 29.71875 -93.21875 C 29.457031 -93.21875 29.328125 -92.953125 29.328125 -92.421875 L 29.328125 -13.3125 C 29.328125 -8.507812 33.132812 -5.34375 40.75 -3.8125 C 42.863281 -3.382812 44.472656 -3.171875 45.578125 -3.171875 C 46.691406 -3.171875 47.25 -2.957031 47.25 -2.53125 L 47.25 -0.640625 C 47.25 -0.210938 47.035156 0 46.609375 0 Z M 5.390625 0 "/></g></g></g><g fill="#ffffff" fill-opacity="1"><g transform="translate(863.346303, 450.416754)"><g/></g></g><g fill="#ffffff" fill-opacity="1"><g transform="translate(918.948937, 450.416754)"><g><path d="M 106.625 -3.015625 C 106.351562 -2.585938 105.703125 -2.492188 104.671875 -2.734375 C 103.640625 -2.972656 102.4375 -3.09375 101.0625 -3.09375 C 99.6875 -3.09375 97.742188 -2.8125 95.234375 -2.25 C 92.734375 -1.695312 88.785156 -0.828125 83.390625 0.359375 C 78.003906 1.546875 73.085938 2.140625 68.640625 2.140625 C 58.609375 2.140625 48.875 -0.222656 39.4375 -4.953125 C 30 -9.679688 22.453125 -16.390625 16.796875 -25.078125 C 11.148438 -33.773438 8.328125 -43.859375 8.328125 -55.328125 C 8.328125 -66.796875 11.15625 -77.179688 16.8125 -86.484375 C 25.050781 -100.117188 37.46875 -109 54.0625 -113.125 C 59.34375 -114.4375 64.628906 -115.09375 69.921875 -115.09375 C 77.160156 -115.09375 85.742188 -113.878906 95.671875 -111.453125 C 98.691406 -110.710938 101.242188 -109.945312 103.328125 -109.15625 C 105.410156 -108.363281 106.691406 -107.96875 107.171875 -107.96875 L 109.546875 -108.59375 L 112 -108.59375 C 112.632812 -108.59375 112.953125 -108.144531 112.953125 -107.25 L 112.953125 -82.59375 C 112.953125 -82.070312 112.476562 -81.8125 111.53125 -81.8125 C 110.582031 -81.8125 110.023438 -81.925781 109.859375 -82.15625 C 109.703125 -82.394531 109.546875 -82.6875 109.390625 -83.03125 C 109.234375 -83.375 109.0625 -83.726562 108.875 -84.09375 C 108.6875 -84.46875 108.5 -84.8125 108.3125 -85.125 C 108.132812 -85.445312 108.019531 -85.6875 107.96875 -85.84375 C 100.039062 -101.75 88.015625 -109.703125 71.890625 -109.703125 C 57.359375 -109.703125 46 -105.078125 37.8125 -95.828125 C 29.625 -86.585938 25.53125 -74.34375 25.53125 -59.09375 C 25.53125 -43.84375 30.035156 -30.75 39.046875 -19.8125 C 48.054688 -8.875 60.300781 -3.40625 75.78125 -3.40625 C 84.238281 -3.40625 91.941406 -5.914062 98.890625 -10.9375 C 105.835938 -15.957031 111.289062 -22.113281 115.25 -29.40625 C 115.363281 -29.726562 115.679688 -29.890625 116.203125 -29.890625 L 117.234375 -29.890625 C 117.765625 -29.890625 118.03125 -29.570312 118.03125 -28.9375 C 118.03125 -28.300781 117.875 -27.691406 117.5625 -27.109375 Z M 106.625 -3.015625 "/></g></g></g><g fill="#ffffff" fill-opacity="1"><g transform="translate(1055.068935, 450.416754)"><g><path d="M 101.625 -6.8125 C 97.03125 -4.007812 92.007812 -1.816406 86.5625 -0.234375 C 81.113281 1.347656 76.28125 2.140625 72.0625 2.140625 C 63.394531 2.140625 55.125 0.738281 47.25 -2.0625 C 36.46875 -5.96875 27.800781 -11.753906 21.25 -19.421875 C 12.894531 -29.191406 8.71875 -41.582031 8.71875 -56.59375 C 8.71875 -67.425781 11.488281 -77.296875 17.03125 -86.203125 C 22.582031 -95.109375 30.257812 -102.148438 40.0625 -107.328125 C 49.875 -112.503906 60.421875 -115.09375 71.703125 -115.09375 C 82.984375 -115.09375 93.085938 -112.582031 102.015625 -107.5625 C 110.953125 -102.539062 118.113281 -95.644531 123.5 -86.875 C 128.894531 -78.101562 131.59375 -68.601562 131.59375 -58.375 C 131.59375 -48.15625 128.921875 -38.429688 123.578125 -29.203125 C 118.242188 -19.984375 110.925781 -12.519531 101.625 -6.8125 Z M 25.359375 -59.125 C 25.359375 -50.351562 27.300781 -41.648438 31.1875 -33.015625 C 35.070312 -24.378906 40.632812 -17.335938 47.875 -11.890625 C 55.113281 -6.441406 63.488281 -3.71875 73 -3.71875 C 86.53125 -3.71875 97.078125 -8.898438 104.640625 -19.265625 C 111.453125 -28.617188 114.859375 -40.5625 114.859375 -55.09375 C 114.859375 -69.625 110.6875 -82.148438 102.34375 -92.671875 C 98.269531 -97.796875 93.285156 -101.898438 87.390625 -104.984375 C 81.503906 -108.078125 75.5625 -109.625 69.5625 -109.625 C 63.5625 -109.625 58.644531 -108.960938 54.8125 -107.640625 C 50.976562 -106.328125 47.503906 -104.519531 44.390625 -102.21875 C 41.273438 -99.914062 38.523438 -97.175781 36.140625 -94 C 33.765625 -90.832031 31.785156 -87.398438 30.203125 -83.703125 C 26.972656 -76.097656 25.359375 -67.90625 25.359375 -59.125 Z M 25.359375 -59.125 "/></g></g></g><g fill="#ffffff" fill-opacity="1"><g transform="translate(1207.355806, 450.416754)"><g><path d="M 4.125 0 C 3.695312 0 3.484375 -0.523438 3.484375 -1.578125 L 3.484375 -2.53125 C 3.484375 -2.957031 3.695312 -3.171875 4.125 -3.171875 C 4.4375 -3.171875 4.9375 -3.222656 5.625 -3.328125 C 6.3125 -3.429688 7.023438 -3.535156 7.765625 -3.640625 C 8.503906 -3.753906 9.191406 -3.875 9.828125 -4 C 10.460938 -4.132812 10.910156 -4.226562 11.171875 -4.28125 C 16.566406 -5.5 19.265625 -8.5625 19.265625 -13.46875 L 19.265625 -97.1875 C 19.265625 -101.726562 17.441406 -104.953125 13.796875 -106.859375 C 11.628906 -108.015625 9.300781 -108.59375 6.8125 -108.59375 L 3.8125 -108.59375 C 3.382812 -108.59375 3.171875 -108.804688 3.171875 -109.234375 L 3.171875 -111.140625 C 3.171875 -111.554688 3.488281 -111.765625 4.125 -111.765625 L 47.640625 -112.953125 L 55.640625 -112.953125 C 64.992188 -112.316406 72.828125 -108.921875 79.140625 -102.765625 C 85.460938 -96.609375 88.625 -89.023438 88.625 -80.015625 C 88.625 -71.003906 84.867188 -63.988281 77.359375 -58.96875 C 75.035156 -57.4375 72.53125 -56.066406 69.84375 -54.859375 L 93.859375 -15.609375 C 98.035156 -8.742188 103.632812 -3.910156 110.65625 -1.109375 C 111.238281 -0.953125 111.53125 -0.582031 111.53125 0 C 111.53125 1.320312 110.660156 1.984375 108.921875 1.984375 C 97.023438 1.984375 87.5625 -2.535156 80.53125 -11.578125 C 79 -13.578125 77.46875 -15.820312 75.9375 -18.3125 L 55.40625 -50.5 L 36.546875 -51.359375 L 35.90625 -51.359375 C 35.113281 -51.359375 34.71875 -50.988281 34.71875 -50.25 L 34.71875 -13.71875 C 34.71875 -10.8125 35.535156 -8.644531 37.171875 -7.21875 C 38.816406 -5.789062 41.644531 -4.8125 45.65625 -4.28125 C 46.71875 -4.125 48.015625 -3.898438 49.546875 -3.609375 C 51.078125 -3.316406 52.117188 -3.171875 52.671875 -3.171875 C 53.222656 -3.171875 53.5 -2.957031 53.5 -2.53125 L 53.5 -0.640625 C 53.5 -0.210938 53.289062 0 52.875 0 Z M 41.140625 -108.796875 C 40.503906 -108.765625 39.828125 -108.734375 39.109375 -108.703125 C 38.398438 -108.679688 37.488281 -108.65625 36.375 -108.625 C 35.269531 -108.601562 34.71875 -108.171875 34.71875 -107.328125 L 34.71875 -59.296875 L 34.875 -56.921875 C 35.03125 -55.804688 35.535156 -55.222656 36.390625 -55.171875 L 44.46875 -54.703125 C 59.320312 -54.703125 68.28125 -59.984375 71.34375 -70.546875 C 72.34375 -73.878906 72.84375 -77.6875 72.84375 -81.96875 C 72.84375 -90.3125 70.238281 -96.890625 65.03125 -101.703125 C 59.832031 -106.515625 53.191406 -108.921875 45.109375 -108.921875 C 44.367188 -108.921875 43.679688 -108.90625 43.046875 -108.875 C 42.410156 -108.851562 41.773438 -108.828125 41.140625 -108.796875 Z M 41.140625 -108.796875 "/></g></g></g><g fill="#ffffff" fill-opacity="1"><g transform="translate(1331.826147, 450.416754)"><g><path d="M 0.5625 -0.640625 L 0.5625 -2.859375 C 0.5625 -3.273438 0.769531 -3.484375 1.1875 -3.484375 L 2.9375 -3.484375 C 5.15625 -3.640625 7.425781 -3.734375 9.75 -3.765625 C 12.070312 -3.796875 14.1875 -4.070312 16.09375 -4.59375 C 20.425781 -5.863281 22.59375 -9.035156 22.59375 -14.109375 L 22.59375 -97.65625 C 22.59375 -102.882812 19.5 -106.210938 13.3125 -107.640625 C 11.570312 -108.015625 9.800781 -108.332031 8 -108.59375 L 6.34375 -108.59375 C 5.914062 -108.59375 5.703125 -108.804688 5.703125 -109.234375 L 5.703125 -111.140625 C 5.703125 -111.554688 5.914062 -111.765625 6.34375 -111.765625 L 81.734375 -111.765625 C 82.679688 -111.765625 83.363281 -111.59375 83.78125 -111.25 C 84.207031 -110.90625 84.472656 -110.15625 84.578125 -109 L 86 -86 C 86 -85.476562 85.601562 -85.21875 84.8125 -85.21875 C 84.019531 -85.21875 83.441406 -85.453125 83.078125 -85.921875 C 82.753906 -86.453125 82.34375 -88.378906 81.84375 -91.703125 C 81.34375 -95.035156 80.429688 -97.8125 79.109375 -100.03125 C 77.785156 -102.257812 75.460938 -103.660156 72.140625 -104.234375 L 39.078125 -104.234375 C 38.390625 -104.234375 38.046875 -103.890625 38.046875 -103.203125 L 38.046875 -62.21875 C 38.046875 -61.695312 38.3125 -61.4375 38.84375 -61.4375 L 66.265625 -61.4375 C 73.347656 -61.4375 76.890625 -65.554688 76.890625 -73.796875 C 76.890625 -74.222656 77.101562 -74.4375 77.53125 -74.4375 L 79.421875 -74.4375 C 79.847656 -74.4375 80.0625 -74.222656 80.0625 -73.796875 L 80.0625 -39.875 C 80.0625 -39.445312 79.847656 -39.234375 79.421875 -39.234375 L 77.53125 -39.234375 C 77.101562 -39.234375 76.890625 -39.445312 76.890625 -39.875 C 76.890625 -47.695312 74.617188 -52.210938 70.078125 -53.421875 C 68.804688 -53.742188 67.457031 -53.90625 66.03125 -53.90625 L 38.84375 -53.90625 C 38.3125 -53.90625 38.046875 -53.640625 38.046875 -53.109375 L 38.046875 -14.5 C 38.046875 -10.539062 39.867188 -8.296875 43.515625 -7.765625 C 44.578125 -7.609375 45.6875 -7.53125 46.84375 -7.53125 L 73.25 -7.53125 C 78.6875 -7.53125 82.910156 -9.9375 85.921875 -14.75 C 88.085938 -18.175781 89.410156 -22.113281 89.890625 -26.5625 C 90.046875 -28.039062 90.835938 -28.78125 92.265625 -28.78125 C 92.898438 -28.78125 93.21875 -28.4375 93.21875 -27.75 L 90.609375 -1.109375 C 90.285156 -0.367188 89.914062 0 89.5 0 L 1.1875 0 C 0.769531 0 0.5625 -0.210938 0.5625 -0.640625 Z M 0.5625 -0.640625 "/></g></g></g></svg>